<svg xmlns="http://www.w3.org/2000/svg" xmlns:xlink="http://www.w3.org/1999/xlink" contentStyleType="text/css" height="1060px" preserveAspectRatio="none" style="width:1036px;height:1060px;background:#FFFFFF;" version="1.1" viewBox="0 0 1036 1060" width="1036px" zoomAndPan="magnify"><defs/><g><!--class Bc--><g id="elem_Bc"><rect codeLine="13" fill="#CCCCFF" height="308.6953" id="Bc" rx="2.5" ry="2.5" style="stroke:#000000;stroke-width:0.5;" width="169.1787" x="384" y="7"/><ellipse cx="457.3374" cy="23" fill="#ADD1B2" rx="11" ry="11" style="stroke:#181818;stroke-width:1.0;"/><path d="M460.103,18.875 Q460.2593,18.6563 460.4468,18.5469 Q460.6343,18.4375 460.853,18.4375 Q461.228,18.4375 461.4624,18.7031 Q461.6968,18.9531 461.6968,19.5625 L461.6968,21.0156 Q461.6968,21.625 461.4624,21.8906 Q461.228,22.1563 460.853,22.1563 Q460.5093,22.1563 460.3062,21.9531 Q460.103,21.7656 459.9937,21.25 Q459.9468,20.8906 459.7593,20.7031 Q459.4312,20.3281 458.8218,20.1094 Q458.2124,19.8906 457.5874,19.8906 Q456.8218,19.8906 456.1812,20.2188 Q455.5562,20.5469 455.0562,21.2969 Q454.5718,22.0469 454.5718,23.0781 L454.5718,24.1719 Q454.5718,25.4063 455.4624,26.2344 Q456.353,27.0469 457.9468,27.0469 Q458.8843,27.0469 459.5405,26.7969 Q459.9312,26.6406 460.353,26.2031 Q460.6187,25.9375 460.7593,25.8594 Q460.9155,25.7813 461.1187,25.7813 Q461.4468,25.7813 461.6968,26.0469 Q461.9624,26.2969 461.9624,26.6406 Q461.9624,26.9844 461.6187,27.3906 Q461.1187,27.9688 460.3218,28.2969 Q459.2437,28.75 457.9468,28.75 Q456.4312,28.75 455.228,28.125 Q454.2437,27.625 453.5562,26.5625 Q452.8687,25.4844 452.8687,24.2031 L452.8687,23.0469 Q452.8687,21.7188 453.478,20.5781 Q454.103,19.4219 455.1968,18.8125 Q456.2905,18.1875 457.5249,18.1875 Q458.2593,18.1875 458.8999,18.3594 Q459.5562,18.5156 460.103,18.875 Z " fill="#000000"/><text fill="#333333" font-family="sans-serif" font-size="12" lengthAdjust="spacing" textLength="14.0039" x="477.8374" y="27.9688">Bc</text><line style="stroke:#000000;stroke-width:0.5;" x1="385" x2="552.1787" y1="39" y2="39"/><line style="stroke:#000000;stroke-width:0.5;" x1="385" x2="552.1787" y1="47" y2="47"/><ellipse cx="395" cy="61.8105" fill="#84BE84" rx="3" ry="3" style="stroke:#038048;stroke-width:1.0;"/><text fill="#000000" font-family="sans-serif" font-size="14" lengthAdjust="spacing" textLength="79.3652" x="404" y="66.1074">oleo_motor()</text><ellipse cx="395" cy="80.4316" fill="#84BE84" rx="3" ry="3" style="stroke:#038048;stroke-width:1.0;"/><text fill="#000000" font-family="sans-serif" font-size="14" lengthAdjust="spacing" textLength="64.5928" x="404" y="84.7285">pergunta()</text><ellipse cx="395" cy="99.0527" fill="#84BE84" rx="3" ry="3" style="stroke:#038048;stroke-width:1.0;"/><text fill="#000000" font-family="sans-serif" font-size="14" lengthAdjust="spacing" textLength="84.8066" x="404" y="103.3496">ultimo_facto()</text><ellipse cx="395" cy="117.6738" fill="#84BE84" rx="3" ry="3" style="stroke:#038048;stroke-width:1.0;"/><text fill="#000000" font-family="sans-serif" font-size="14" lengthAdjust="spacing" textLength="105.834" x="404" y="121.9707">opcoes_validas()</text><ellipse cx="395" cy="136.2949" fill="#84BE84" rx="3" ry="3" style="stroke:#038048;stroke-width:1.0;"/><text fill="#000000" font-family="sans-serif" font-size="14" lengthAdjust="spacing" textLength="126.0479" x="404" y="140.5918">fluido_transmissao()</text><ellipse cx="395" cy="154.916" fill="#84BE84" rx="3" ry="3" style="stroke:#038048;stroke-width:1.0;"/><text fill="#000000" font-family="sans-serif" font-size="14" lengthAdjust="spacing" textLength="102.7305" x="404" y="159.2129">texto_pergunta()</text><ellipse cx="395" cy="173.5371" fill="#84BE84" rx="3" ry="3" style="stroke:#038048;stroke-width:1.0;"/><text fill="#000000" font-family="sans-serif" font-size="14" lengthAdjust="spacing" textLength="108.9375" x="404" y="177.834">motor_arranque()</text><ellipse cx="395" cy="192.1582" fill="#84BE84" rx="3" ry="3" style="stroke:#038048;stroke-width:1.0;"/><text fill="#000000" font-family="sans-serif" font-size="14" lengthAdjust="spacing" textLength="52.1309" x="404" y="196.4551">bateria()</text><ellipse cx="395" cy="210.7793" fill="#84BE84" rx="3" ry="3" style="stroke:#038048;stroke-width:1.0;"/><text fill="#000000" font-family="sans-serif" font-size="14" lengthAdjust="spacing" textLength="86.3652" x="404" y="215.0762">bloco_motor()</text><ellipse cx="395" cy="229.4004" fill="#84BE84" rx="3" ry="3" style="stroke:#038048;stroke-width:1.0;"/><text fill="#000000" font-family="sans-serif" font-size="14" lengthAdjust="spacing" textLength="143.1787" x="404" y="233.6973">liquido_arrefecimento()</text><ellipse cx="395" cy="248.0215" fill="#84BE84" rx="3" ry="3" style="stroke:#038048;stroke-width:1.0;"/><text fill="#000000" font-family="sans-serif" font-size="14" lengthAdjust="spacing" textLength="89.4893" x="404" y="252.3184">fluido_travao()</text><ellipse cx="395" cy="266.6426" fill="#84BE84" rx="3" ry="3" style="stroke:#038048;stroke-width:1.0;"/><text fill="#000000" font-family="sans-serif" font-size="14" lengthAdjust="spacing" textLength="140.8477" x="404" y="270.9395">facto_dispara_regras()</text><ellipse cx="395" cy="285.2637" fill="#84BE84" rx="3" ry="3" style="stroke:#038048;stroke-width:1.0;"/><text fill="#000000" font-family="sans-serif" font-size="14" lengthAdjust="spacing" textLength="41.2207" x="404" y="289.5605">carro()</text><ellipse cx="395" cy="303.8848" fill="#84BE84" rx="3" ry="3" style="stroke:#038048;stroke-width:1.0;"/><text fill="#000000" font-family="sans-serif" font-size="14" lengthAdjust="spacing" textLength="82.4893" x="404" y="308.1816">perguntavel()</text></g><!--class Como--><g id="elem_Como"><rect codeLine="31" fill="#FFCC99" height="103.8633" id="Como" rx="2.5" ry="2.5" style="stroke:#000000;stroke-width:0.5;" width="134.9375" x="462" y="404"/><ellipse cx="509.2139" cy="420" fill="#ADD1B2" rx="11" ry="11" style="stroke:#181818;stroke-width:1.0;"/><path d="M511.9795,415.875 Q512.1357,415.6563 512.3232,415.5469 Q512.5107,415.4375 512.7295,415.4375 Q513.1045,415.4375 513.3389,415.7031 Q513.5732,415.9531 513.5732,416.5625 L513.5732,418.0156 Q513.5732,418.625 513.3389,418.8906 Q513.1045,419.1563 512.7295,419.1563 Q512.3857,419.1563 512.1826,418.9531 Q511.9795,418.7656 511.8701,418.25 Q511.8232,417.8906 511.6357,417.7031 Q511.3076,417.3281 510.6982,417.1094 Q510.0889,416.8906 509.4639,416.8906 Q508.6982,416.8906 508.0576,417.2188 Q507.4326,417.5469 506.9326,418.2969 Q506.4482,419.0469 506.4482,420.0781 L506.4482,421.1719 Q506.4482,422.4063 507.3389,423.2344 Q508.2295,424.0469 509.8232,424.0469 Q510.7607,424.0469 511.417,423.7969 Q511.8076,423.6406 512.2295,423.2031 Q512.4951,422.9375 512.6357,422.8594 Q512.792,422.7813 512.9951,422.7813 Q513.3232,422.7813 513.5732,423.0469 Q513.8389,423.2969 513.8389,423.6406 Q513.8389,423.9844 513.4951,424.3906 Q512.9951,424.9688 512.1982,425.2969 Q511.1201,425.75 509.8232,425.75 Q508.3076,425.75 507.1045,425.125 Q506.1201,424.625 505.4326,423.5625 Q504.7451,422.4844 504.7451,421.2031 L504.7451,420.0469 Q504.7451,418.7188 505.3545,417.5781 Q505.9795,416.4219 507.0732,415.8125 Q508.167,415.1875 509.4014,415.1875 Q510.1357,415.1875 510.7764,415.3594 Q511.4326,415.5156 511.9795,415.875 Z " fill="#000000"/><text fill="#333333" font-family="sans-serif" font-size="12" lengthAdjust="spacing" textLength="32.0098" x="529.7139" y="424.9688">Como</text><line style="stroke:#000000;stroke-width:0.5;" x1="463" x2="595.9375" y1="436" y2="436"/><line style="stroke:#000000;stroke-width:0.5;" x1="463" x2="595.9375" y1="444" y2="444"/><ellipse cx="473" cy="458.8105" fill="#84BE84" rx="3" ry="3" style="stroke:#038048;stroke-width:1.0;"/><text fill="#000000" font-family="sans-serif" font-size="14" lengthAdjust="spacing" textLength="104.2754" x="482" y="463.1074">continua_como()</text><ellipse cx="473" cy="477.4316" fill="#84BE84" rx="3" ry="3" style="stroke:#038048;stroke-width:1.0;"/><text fill="#000000" font-family="sans-serif" font-size="14" lengthAdjust="spacing" textLength="43.5586" x="482" y="481.7285">como()</text><ellipse cx="473" cy="496.0527" fill="#84BE84" rx="3" ry="3" style="stroke:#038048;stroke-width:1.0;"/><text fill="#000000" font-family="sans-serif" font-size="14" lengthAdjust="spacing" textLength="108.9375" x="482" y="500.3496">como_response()</text></g><!--class Diagnostico--><g id="elem_Diagnostico"><rect codeLine="38" fill="#CCFFCC" height="271.4531" id="Diagnostico" rx="2.5" ry="2.5" style="stroke:#000000;stroke-width:0.5;" width="246.2197" x="783.5" y="689.5"/><ellipse cx="871.0093" cy="705.5" fill="#ADD1B2" rx="11" ry="11" style="stroke:#181818;stroke-width:1.0;"/><path d="M873.7749,701.375 Q873.9312,701.1563 874.1187,701.0469 Q874.3062,700.9375 874.5249,700.9375 Q874.8999,700.9375 875.1343,701.2031 Q875.3687,701.4531 875.3687,702.0625 L875.3687,703.5156 Q875.3687,704.125 875.1343,704.3906 Q874.8999,704.6563 874.5249,704.6563 Q874.1812,704.6563 873.978,704.4531 Q873.7749,704.2656 873.6655,703.75 Q873.6187,703.3906 873.4312,703.2031 Q873.103,702.8281 872.4937,702.6094 Q871.8843,702.3906 871.2593,702.3906 Q870.4937,702.3906 869.853,702.7188 Q869.228,703.0469 868.728,703.7969 Q868.2437,704.5469 868.2437,705.5781 L868.2437,706.6719 Q868.2437,707.9063 869.1343,708.7344 Q870.0249,709.5469 871.6187,709.5469 Q872.5562,709.5469 873.2124,709.2969 Q873.603,709.1406 874.0249,708.7031 Q874.2905,708.4375 874.4312,708.3594 Q874.5874,708.2813 874.7905,708.2813 Q875.1187,708.2813 875.3687,708.5469 Q875.6343,708.7969 875.6343,709.1406 Q875.6343,709.4844 875.2905,709.8906 Q874.7905,710.4688 873.9937,710.7969 Q872.9155,711.25 871.6187,711.25 Q870.103,711.25 868.8999,710.625 Q867.9155,710.125 867.228,709.0625 Q866.5405,707.9844 866.5405,706.7031 L866.5405,705.5469 Q866.5405,704.2188 867.1499,703.0781 Q867.7749,701.9219 868.8687,701.3125 Q869.9624,700.6875 871.1968,700.6875 Q871.9312,700.6875 872.5718,700.8594 Q873.228,701.0156 873.7749,701.375 Z " fill="#000000"/><text fill="#333333" font-family="sans-serif" font-size="12" lengthAdjust="spacing" textLength="62.7012" x="891.5093" y="710.4688">Diagnostico</text><line style="stroke:#000000;stroke-width:0.5;" x1="784.5" x2="1028.7197" y1="721.5" y2="721.5"/><line style="stroke:#000000;stroke-width:0.5;" x1="784.5" x2="1028.7197" y1="729.5" y2="729.5"/><ellipse cx="794.5" cy="744.3105" fill="#84BE84" rx="3" ry="3" style="stroke:#038048;stroke-width:1.0;"/><text fill="#000000" font-family="sans-serif" font-size="14" lengthAdjust="spacing" textLength="189.8613" x="803.5" y="748.6074">listar_diagnosticos_possiveis()</text><ellipse cx="794.5" cy="762.9316" fill="#84BE84" rx="3" ry="3" style="stroke:#038048;stroke-width:1.0;"/><text fill="#000000" font-family="sans-serif" font-size="14" lengthAdjust="spacing" textLength="220.2197" x="803.5" y="767.2285">listar_diagnosticos_possiveis_aux()</text><ellipse cx="794.5" cy="781.5527" fill="#84BE84" rx="3" ry="3" style="stroke:#038048;stroke-width:1.0;"/><text fill="#000000" font-family="sans-serif" font-size="14" lengthAdjust="spacing" textLength="112.0479" x="803.5" y="785.8496">validar_resposta()</text><ellipse cx="794.5" cy="800.1738" fill="#84BE84" rx="3" ry="3" style="stroke:#038048;stroke-width:1.0;"/><text fill="#000000" font-family="sans-serif" font-size="14" lengthAdjust="spacing" textLength="170.4404" x="803.5" y="804.4707">diagnostico_passo_passo()</text><ellipse cx="794.5" cy="818.7949" fill="#84BE84" rx="3" ry="3" style="stroke:#038048;stroke-width:1.0;"/><text fill="#000000" font-family="sans-serif" font-size="14" lengthAdjust="spacing" textLength="186.7646" x="803.5" y="823.0918">mostra_diagnostico_solucao()</text><ellipse cx="794.5" cy="837.416" fill="#84BE84" rx="3" ry="3" style="stroke:#038048;stroke-width:1.0;"/><text fill="#000000" font-family="sans-serif" font-size="14" lengthAdjust="spacing" textLength="115.9307" x="803.5" y="841.7129">processar_testes()</text><ellipse cx="794.5" cy="856.0371" fill="#84BE84" rx="3" ry="3" style="stroke:#038048;stroke-width:1.0;"/><text fill="#000000" font-family="sans-serif" font-size="14" lengthAdjust="spacing" textLength="117.5098" x="803.5" y="860.334">criacao_pergunta()</text><ellipse cx="794.5" cy="874.6582" fill="#84BE84" rx="3" ry="3" style="stroke:#038048;stroke-width:1.0;"/><text fill="#000000" font-family="sans-serif" font-size="14" lengthAdjust="spacing" textLength="199.2334" x="803.5" y="878.9551">diag_problemas_passo_passo()</text><ellipse cx="794.5" cy="893.2793" fill="#84BE84" rx="3" ry="3" style="stroke:#038048;stroke-width:1.0;"/><text fill="#000000" font-family="sans-serif" font-size="14" lengthAdjust="spacing" textLength="198.4404" x="803.5" y="897.5762">tratar_problema_passo_passo()</text><ellipse cx="794.5" cy="911.9004" fill="#84BE84" rx="3" ry="3" style="stroke:#038048;stroke-width:1.0;"/><text fill="#000000" font-family="sans-serif" font-size="14" lengthAdjust="spacing" textLength="108.1514" x="803.5" y="916.1973">tratar_problema()</text><ellipse cx="794.5" cy="930.5215" fill="#84BE84" rx="3" ry="3" style="stroke:#038048;stroke-width:1.0;"/><text fill="#000000" font-family="sans-serif" font-size="14" lengthAdjust="spacing" textLength="111.2891" x="803.5" y="934.8184">obter_perguntas()</text><ellipse cx="794.5" cy="949.1426" fill="#84BE84" rx="3" ry="3" style="stroke:#038048;stroke-width:1.0;"/><text fill="#000000" font-family="sans-serif" font-size="14" lengthAdjust="spacing" textLength="206.2197" x="803.5" y="953.4395">processar_testes_passo_passo()</text></g><!--class Escolha_carro--><g id="elem_Escolha_carro"><rect codeLine="54" fill="#FFCCCC" height="178.3477" id="Escolha_carro" rx="2.5" ry="2.5" style="stroke:#000000;stroke-width:0.5;" width="195.6406" x="552.5" y="736"/><ellipse cx="607.7178" cy="752" fill="#ADD1B2" rx="11" ry="11" style="stroke:#181818;stroke-width:1.0;"/><path d="M610.4834,747.875 Q610.6396,747.6563 610.8271,747.5469 Q611.0146,747.4375 611.2334,747.4375 Q611.6084,747.4375 611.8428,747.7031 Q612.0771,747.9531 612.0771,748.5625 L612.0771,750.0156 Q612.0771,750.625 611.8428,750.8906 Q611.6084,751.1563 611.2334,751.1563 Q610.8896,751.1563 610.6865,750.9531 Q610.4834,750.7656 610.374,750.25 Q610.3271,749.8906 610.1396,749.7031 Q609.8115,749.3281 609.2021,749.1094 Q608.5928,748.8906 607.9678,748.8906 Q607.2021,748.8906 606.5615,749.2188 Q605.9365,749.5469 605.4365,750.2969 Q604.9521,751.0469 604.9521,752.0781 L604.9521,753.1719 Q604.9521,754.4063 605.8428,755.2344 Q606.7334,756.0469 608.3271,756.0469 Q609.2646,756.0469 609.9209,755.7969 Q610.3115,755.6406 610.7334,755.2031 Q610.999,754.9375 611.1396,754.8594 Q611.2959,754.7813 611.499,754.7813 Q611.8271,754.7813 612.0771,755.0469 Q612.3428,755.2969 612.3428,755.6406 Q612.3428,755.9844 611.999,756.3906 Q611.499,756.9688 610.7021,757.2969 Q609.624,757.75 608.3271,757.75 Q606.8115,757.75 605.6084,757.125 Q604.624,756.625 603.9365,755.5625 Q603.249,754.4844 603.249,753.2031 L603.249,752.0469 Q603.249,750.7188 603.8584,749.5781 Q604.4834,748.4219 605.5771,747.8125 Q606.6709,747.1875 607.9053,747.1875 Q608.6396,747.1875 609.2803,747.3594 Q609.9365,747.5156 610.4834,747.875 Z " fill="#000000"/><text fill="#333333" font-family="sans-serif" font-size="12" lengthAdjust="spacing" textLength="76.7051" x="628.2178" y="756.9688">Escolha_carro</text><line style="stroke:#000000;stroke-width:0.5;" x1="553.5" x2="747.1406" y1="768" y2="768"/><line style="stroke:#000000;stroke-width:0.5;" x1="553.5" x2="747.1406" y1="776" y2="776"/><ellipse cx="563.5" cy="790.8105" fill="#84BE84" rx="3" ry="3" style="stroke:#038048;stroke-width:1.0;"/><text fill="#000000" font-family="sans-serif" font-size="14" lengthAdjust="spacing" textLength="159.5508" x="572.5" y="795.1074">obter_opcao_por_indice()</text><ellipse cx="563.5" cy="809.4316" fill="#84BE84" rx="3" ry="3" style="stroke:#038048;stroke-width:1.0;"/><text fill="#000000" font-family="sans-serif" font-size="14" lengthAdjust="spacing" textLength="92.5654" x="572.5" y="813.7285">listar_marcas()</text><ellipse cx="563.5" cy="828.0527" fill="#84BE84" rx="3" ry="3" style="stroke:#038048;stroke-width:1.0;"/><text fill="#000000" font-family="sans-serif" font-size="14" lengthAdjust="spacing" textLength="169.6406" x="572.5" y="832.3496">listar_opcoes_numeradas()</text><ellipse cx="563.5" cy="846.6738" fill="#84BE84" rx="3" ry="3" style="stroke:#038048;stroke-width:1.0;"/><text fill="#000000" font-family="sans-serif" font-size="14" lengthAdjust="spacing" textLength="101.1377" x="572.5" y="850.9707">procurar_carro()</text><ellipse cx="563.5" cy="865.2949" fill="#84BE84" rx="3" ry="3" style="stroke:#038048;stroke-width:1.0;"/><text fill="#000000" font-family="sans-serif" font-size="14" lengthAdjust="spacing" textLength="97.2412" x="572.5" y="869.5918">listar_motores()</text><ellipse cx="563.5" cy="883.916" fill="#84BE84" rx="3" ry="3" style="stroke:#038048;stroke-width:1.0;"/><text fill="#000000" font-family="sans-serif" font-size="14" lengthAdjust="spacing" textLength="136.1719" x="572.5" y="888.2129">obter_numero_carro()</text><ellipse cx="563.5" cy="902.5371" fill="#84BE84" rx="3" ry="3" style="stroke:#038048;stroke-width:1.0;"/><text fill="#000000" font-family="sans-serif" font-size="14" lengthAdjust="spacing" textLength="99.5859" x="572.5" y="906.834">listar_modelos()</text></g><!--class Motorinferencia--><g id="elem_Motorinferencia"><rect codeLine="65" fill="#FFFFCC" height="271.4531" id="Motorinferencia" rx="2.5" ry="2.5" style="stroke:#000000;stroke-width:0.5;" width="206.5576" x="7" y="689.5"/><ellipse cx="64.6763" cy="705.5" fill="#ADD1B2" rx="11" ry="11" style="stroke:#181818;stroke-width:1.0;"/><path d="M67.4419,701.375 Q67.5981,701.1563 67.7856,701.0469 Q67.9731,700.9375 68.1919,700.9375 Q68.5669,700.9375 68.8013,701.2031 Q69.0356,701.4531 69.0356,702.0625 L69.0356,703.5156 Q69.0356,704.125 68.8013,704.3906 Q68.5669,704.6563 68.1919,704.6563 Q67.8481,704.6563 67.645,704.4531 Q67.4419,704.2656 67.3325,703.75 Q67.2856,703.3906 67.0981,703.2031 Q66.77,702.8281 66.1606,702.6094 Q65.5513,702.3906 64.9263,702.3906 Q64.1606,702.3906 63.52,702.7188 Q62.895,703.0469 62.395,703.7969 Q61.9106,704.5469 61.9106,705.5781 L61.9106,706.6719 Q61.9106,707.9063 62.8013,708.7344 Q63.6919,709.5469 65.2856,709.5469 Q66.2231,709.5469 66.8794,709.2969 Q67.27,709.1406 67.6919,708.7031 Q67.9575,708.4375 68.0981,708.3594 Q68.2544,708.2813 68.4575,708.2813 Q68.7856,708.2813 69.0356,708.5469 Q69.3013,708.7969 69.3013,709.1406 Q69.3013,709.4844 68.9575,709.8906 Q68.4575,710.4688 67.6606,710.7969 Q66.5825,711.25 65.2856,711.25 Q63.77,711.25 62.5669,710.625 Q61.5825,710.125 60.895,709.0625 Q60.2075,707.9844 60.2075,706.7031 L60.2075,705.5469 Q60.2075,704.2188 60.8169,703.0781 Q61.4419,701.9219 62.5356,701.3125 Q63.6294,700.6875 64.8638,700.6875 Q65.5981,700.6875 66.2388,700.8594 Q66.895,701.0156 67.4419,701.375 Z " fill="#000000"/><text fill="#333333" font-family="sans-serif" font-size="12" lengthAdjust="spacing" textLength="82.7051" x="85.1763" y="710.4688">Motorinferencia</text><line style="stroke:#000000;stroke-width:0.5;" x1="8" x2="212.5576" y1="721.5" y2="721.5"/><line style="stroke:#000000;stroke-width:0.5;" x1="8" x2="212.5576" y1="729.5" y2="729.5"/><ellipse cx="18" cy="744.3105" fill="#84BE84" rx="3" ry="3" style="stroke:#038048;stroke-width:1.0;"/><text fill="#000000" font-family="sans-serif" font-size="14" lengthAdjust="spacing" textLength="180.5576" x="27" y="748.6074">facto_esta_numa_condicao()</text><ellipse cx="18" cy="762.9316" fill="#84BE84" rx="3" ry="3" style="stroke:#038048;stroke-width:1.0;"/><text fill="#000000" font-family="sans-serif" font-size="14" lengthAdjust="spacing" textLength="103.4824" x="27" y="767.2285">escreve_factos()</text><ellipse cx="18" cy="781.5527" fill="#84BE84" rx="3" ry="3" style="stroke:#038048;stroke-width:1.0;"/><text fill="#000000" font-family="sans-serif" font-size="14" lengthAdjust="spacing" textLength="148.6338" x="27" y="785.8496">facto_dispara_regras1()</text><ellipse cx="18" cy="800.1738" fill="#84BE84" rx="3" ry="3" style="stroke:#038048;stroke-width:1.0;"/><text fill="#000000" font-family="sans-serif" font-size="14" lengthAdjust="spacing" textLength="102.71" x="27" y="804.4707">dispara_regras()</text><ellipse cx="18" cy="818.7949" fill="#84BE84" rx="3" ry="3" style="stroke:#038048;stroke-width:1.0;"/><text fill="#000000" font-family="sans-serif" font-size="14" lengthAdjust="spacing" textLength="45.9033" x="27" y="823.0918">avalia()</text><ellipse cx="18" cy="837.416" fill="#84BE84" rx="3" ry="3" style="stroke:#038048;stroke-width:1.0;"/><text fill="#000000" font-family="sans-serif" font-size="14" lengthAdjust="spacing" textLength="97.248" x="27" y="841.7129">mostra_factos()</text><ellipse cx="18" cy="856.0371" fill="#84BE84" rx="3" ry="3" style="stroke:#038048;stroke-width:1.0;"/><text fill="#000000" font-family="sans-serif" font-size="14" lengthAdjust="spacing" textLength="154.0547" x="27" y="860.334">mostra_factos_filtrados()</text><ellipse cx="18" cy="874.6582" fill="#84BE84" rx="3" ry="3" style="stroke:#038048;stroke-width:1.0;"/><text fill="#000000" font-family="sans-serif" font-size="14" lengthAdjust="spacing" textLength="57.5654" x="27" y="878.9551">concluir()</text><ellipse cx="18" cy="893.2793" fill="#84BE84" rx="3" ry="3" style="stroke:#038048;stroke-width:1.0;"/><text fill="#000000" font-family="sans-serif" font-size="14" lengthAdjust="spacing" textLength="116.7031" x="27" y="897.5762">cria_facto_server()</text><ellipse cx="18" cy="911.9004" fill="#84BE84" rx="3" ry="3" style="stroke:#038048;stroke-width:1.0;"/><text fill="#000000" font-family="sans-serif" font-size="14" lengthAdjust="spacing" textLength="70.0205" x="27" y="916.1973">cria_facto()</text><ellipse cx="18" cy="930.5215" fill="#84BE84" rx="3" ry="3" style="stroke:#038048;stroke-width:1.0;"/><text fill="#000000" font-family="sans-serif" font-size="14" lengthAdjust="spacing" textLength="124.4961" x="27" y="934.8184">verifica_condicoes()</text><ellipse cx="18" cy="949.1426" fill="#84BE84" rx="3" ry="3" style="stroke:#038048;stroke-width:1.0;"/><text fill="#000000" font-family="sans-serif" font-size="14" lengthAdjust="spacing" textLength="63.793" x="27" y="953.4395">compara()</text></g><!--class Porque--><g id="elem_Porque"><rect codeLine="81" fill="#99CCFF" height="85.2422" id="Porque" rx="2.5" ry="2.5" style="stroke:#000000;stroke-width:0.5;" width="144.2959" x="204.5" y="119"/><ellipse cx="253.0503" cy="135" fill="#ADD1B2" rx="11" ry="11" style="stroke:#181818;stroke-width:1.0;"/><path d="M255.8159,130.875 Q255.9722,130.6563 256.1597,130.5469 Q256.3472,130.4375 256.5659,130.4375 Q256.9409,130.4375 257.1753,130.7031 Q257.4097,130.9531 257.4097,131.5625 L257.4097,133.0156 Q257.4097,133.625 257.1753,133.8906 Q256.9409,134.1563 256.5659,134.1563 Q256.2222,134.1563 256.019,133.9531 Q255.8159,133.7656 255.7065,133.25 Q255.6597,132.8906 255.4722,132.7031 Q255.144,132.3281 254.5347,132.1094 Q253.9253,131.8906 253.3003,131.8906 Q252.5347,131.8906 251.894,132.2188 Q251.269,132.5469 250.769,133.2969 Q250.2847,134.0469 250.2847,135.0781 L250.2847,136.1719 Q250.2847,137.4063 251.1753,138.2344 Q252.0659,139.0469 253.6597,139.0469 Q254.5972,139.0469 255.2534,138.7969 Q255.644,138.6406 256.0659,138.2031 Q256.3315,137.9375 256.4722,137.8594 Q256.6284,137.7813 256.8315,137.7813 Q257.1597,137.7813 257.4097,138.0469 Q257.6753,138.2969 257.6753,138.6406 Q257.6753,138.9844 257.3315,139.3906 Q256.8315,139.9688 256.0347,140.2969 Q254.9565,140.75 253.6597,140.75 Q252.144,140.75 250.9409,140.125 Q249.9565,139.625 249.269,138.5625 Q248.5815,137.4844 248.5815,136.2031 L248.5815,135.0469 Q248.5815,133.7188 249.1909,132.5781 Q249.8159,131.4219 250.9097,130.8125 Q252.0034,130.1875 253.2378,130.1875 Q253.9722,130.1875 254.6128,130.3594 Q255.269,130.5156 255.8159,130.875 Z " fill="#000000"/><text fill="#333333" font-family="sans-serif" font-size="12" lengthAdjust="spacing" textLength="38.6953" x="273.5503" y="139.9688">Porque</text><line style="stroke:#000000;stroke-width:0.5;" x1="205.5" x2="347.7959" y1="151" y2="151"/><line style="stroke:#000000;stroke-width:0.5;" x1="205.5" x2="347.7959" y1="159" y2="159"/><ellipse cx="215.5" cy="173.8105" fill="#84BE84" rx="3" ry="3" style="stroke:#038048;stroke-width:1.0;"/><text fill="#000000" font-family="sans-serif" font-size="14" lengthAdjust="spacing" textLength="118.2959" x="224.5" y="178.1074">porque_response()</text><ellipse cx="215.5" cy="192.4316" fill="#84BE84" rx="3" ry="3" style="stroke:#038048;stroke-width:1.0;"/><text fill="#000000" font-family="sans-serif" font-size="14" lengthAdjust="spacing" textLength="52.917" x="224.5" y="196.7285">porque()</text></g><!--class Porque_nao--><g id="elem_Porque_nao"><rect codeLine="87" fill="#FFCCFF" height="159.7266" id="Porque_nao" rx="2.5" ry="2.5" style="stroke:#000000;stroke-width:0.5;" width="219.7988" x="135.5" y="376"/><ellipse cx="208.4541" cy="392" fill="#ADD1B2" rx="11" ry="11" style="stroke:#181818;stroke-width:1.0;"/><path d="M211.2197,387.875 Q211.376,387.6563 211.5635,387.5469 Q211.751,387.4375 211.9697,387.4375 Q212.3447,387.4375 212.5791,387.7031 Q212.8135,387.9531 212.8135,388.5625 L212.8135,390.0156 Q212.8135,390.625 212.5791,390.8906 Q212.3447,391.1563 211.9697,391.1563 Q211.626,391.1563 211.4229,390.9531 Q211.2197,390.7656 211.1104,390.25 Q211.0635,389.8906 210.876,389.7031 Q210.5479,389.3281 209.9385,389.1094 Q209.3291,388.8906 208.7041,388.8906 Q207.9385,388.8906 207.2979,389.2188 Q206.6729,389.5469 206.1729,390.2969 Q205.6885,391.0469 205.6885,392.0781 L205.6885,393.1719 Q205.6885,394.4063 206.5791,395.2344 Q207.4697,396.0469 209.0635,396.0469 Q210.001,396.0469 210.6572,395.7969 Q211.0479,395.6406 211.4697,395.2031 Q211.7354,394.9375 211.876,394.8594 Q212.0322,394.7813 212.2354,394.7813 Q212.5635,394.7813 212.8135,395.0469 Q213.0791,395.2969 213.0791,395.6406 Q213.0791,395.9844 212.7354,396.3906 Q212.2354,396.9688 211.4385,397.2969 Q210.3604,397.75 209.0635,397.75 Q207.5479,397.75 206.3447,397.125 Q205.3604,396.625 204.6729,395.5625 Q203.9854,394.4844 203.9854,393.2031 L203.9854,392.0469 Q203.9854,390.7188 204.5947,389.5781 Q205.2197,388.4219 206.3135,387.8125 Q207.4072,387.1875 208.6416,387.1875 Q209.376,387.1875 210.0166,387.3594 Q210.6729,387.5156 211.2197,387.875 Z " fill="#000000"/><text fill="#333333" font-family="sans-serif" font-size="12" lengthAdjust="spacing" textLength="65.3906" x="228.9541" y="396.9688">Porque_nao</text><line style="stroke:#000000;stroke-width:0.5;" x1="136.5" x2="354.2988" y1="408" y2="408"/><line style="stroke:#000000;stroke-width:0.5;" x1="136.5" x2="354.2988" y1="416" y2="416"/><ellipse cx="146.5" cy="430.8105" fill="#84BE84" rx="3" ry="3" style="stroke:#038048;stroke-width:1.0;"/><text fill="#000000" font-family="sans-serif" font-size="14" lengthAdjust="spacing" textLength="56.7861" x="155.5" y="435.1074">formata()</text><ellipse cx="146.5" cy="449.4316" fill="#84BE84" rx="3" ry="3" style="stroke:#038048;stroke-width:1.0;"/><text fill="#000000" font-family="sans-serif" font-size="14" lengthAdjust="spacing" textLength="135.4268" x="155.5" y="453.7285">explica_porque_nao()</text><ellipse cx="146.5" cy="468.0527" fill="#84BE84" rx="3" ry="3" style="stroke:#038048;stroke-width:1.0;"/><text fill="#000000" font-family="sans-serif" font-size="14" lengthAdjust="spacing" textLength="179.7441" x="155.5" y="472.3496">encontra_premissas_falsas()</text><ellipse cx="146.5" cy="486.6738" fill="#84BE84" rx="3" ry="3" style="stroke:#038048;stroke-width:1.0;"/><text fill="#000000" font-family="sans-serif" font-size="14" lengthAdjust="spacing" textLength="193.7988" x="155.5" y="490.9707">encontra_regras_porque_nao()</text><ellipse cx="146.5" cy="505.2949" fill="#84BE84" rx="3" ry="3" style="stroke:#038048;stroke-width:1.0;"/><text fill="#000000" font-family="sans-serif" font-size="14" lengthAdjust="spacing" textLength="84.0615" x="155.5" y="509.5918">porque_nao()</text><ellipse cx="146.5" cy="523.916" fill="#84BE84" rx="3" ry="3" style="stroke:#038048;stroke-width:1.0;"/><text fill="#000000" font-family="sans-serif" font-size="14" lengthAdjust="spacing" textLength="91.8477" x="155.5" y="528.2129">porque_nao1()</text></g><!--class Server--><g id="elem_Server"><rect codeLine="97" fill="#CCFFFF" height="457.6641" id="Server" rx="2.5" ry="2.5" style="stroke:#000000;stroke-width:0.5;" width="268.0195" x="249.5" y="596"/><ellipse cx="361.5879" cy="612" fill="#ADD1B2" rx="11" ry="11" style="stroke:#181818;stroke-width:1.0;"/><path d="M364.3535,607.875 Q364.5098,607.6563 364.6973,607.5469 Q364.8848,607.4375 365.1035,607.4375 Q365.4785,607.4375 365.7129,607.7031 Q365.9473,607.9531 365.9473,608.5625 L365.9473,610.0156 Q365.9473,610.625 365.7129,610.8906 Q365.4785,611.1563 365.1035,611.1563 Q364.7598,611.1563 364.5566,610.9531 Q364.3535,610.7656 364.2441,610.25 Q364.1973,609.8906 364.0098,609.7031 Q363.6816,609.3281 363.0723,609.1094 Q362.4629,608.8906 361.8379,608.8906 Q361.0723,608.8906 360.4316,609.2188 Q359.8066,609.5469 359.3066,610.2969 Q358.8223,611.0469 358.8223,612.0781 L358.8223,613.1719 Q358.8223,614.4063 359.7129,615.2344 Q360.6035,616.0469 362.1973,616.0469 Q363.1348,616.0469 363.791,615.7969 Q364.1816,615.6406 364.6035,615.2031 Q364.8691,614.9375 365.0098,614.8594 Q365.166,614.7813 365.3691,614.7813 Q365.6973,614.7813 365.9473,615.0469 Q366.2129,615.2969 366.2129,615.6406 Q366.2129,615.9844 365.8691,616.3906 Q365.3691,616.9688 364.5723,617.2969 Q363.4941,617.75 362.1973,617.75 Q360.6816,617.75 359.4785,617.125 Q358.4941,616.625 357.8066,615.5625 Q357.1191,614.4844 357.1191,613.2031 L357.1191,612.0469 Q357.1191,610.7188 357.7285,609.5781 Q358.3535,608.4219 359.4473,607.8125 Q360.541,607.1875 361.7754,607.1875 Q362.5098,607.1875 363.1504,607.3594 Q363.8066,607.5156 364.3535,607.875 Z " fill="#000000"/><text fill="#333333" font-family="sans-serif" font-size="12" lengthAdjust="spacing" textLength="35.3438" x="382.0879" y="616.9688">Server</text><line style="stroke:#000000;stroke-width:0.5;" x1="250.5" x2="516.5195" y1="628" y2="628"/><line style="stroke:#000000;stroke-width:0.5;" x1="250.5" x2="516.5195" y1="636" y2="636"/><ellipse cx="260.5" cy="650.8105" fill="#84BE84" rx="3" ry="3" style="stroke:#038048;stroke-width:1.0;"/><text fill="#000000" font-family="sans-serif" font-size="14" lengthAdjust="spacing" textLength="231.1436" x="269.5" y="655.1074">http_handler_diagnostico_possiveis()</text><ellipse cx="260.5" cy="669.4316" fill="#84BE84" rx="3" ry="3" style="stroke:#038048;stroke-width:1.0;"/><text fill="#000000" font-family="sans-serif" font-size="14" lengthAdjust="spacing" textLength="185.2129" x="269.5" y="673.7285">http_handler_listar_modelos()</text><ellipse cx="260.5" cy="688.0527" fill="#84BE84" rx="3" ry="3" style="stroke:#038048;stroke-width:1.0;"/><text fill="#000000" font-family="sans-serif" font-size="14" lengthAdjust="spacing" textLength="101.1719" x="269.5" y="692.3496">prolog_to_json()</text><ellipse cx="260.5" cy="706.6738" fill="#84BE84" rx="3" ry="3" style="stroke:#038048;stroke-width:1.0;"/><text fill="#000000" font-family="sans-serif" font-size="14" lengthAdjust="spacing" textLength="150.2197" x="269.5" y="710.9707">http_handler_pergunta()</text><ellipse cx="260.5" cy="725.2949" fill="#84BE84" rx="3" ry="3" style="stroke:#038048;stroke-width:1.0;"/><text fill="#000000" font-family="sans-serif" font-size="14" lengthAdjust="spacing" textLength="59.1172" x="269.5" y="729.5918">servidor()</text><ellipse cx="260.5" cy="743.916" fill="#84BE84" rx="3" ry="3" style="stroke:#038048;stroke-width:1.0;"/><text fill="#000000" font-family="sans-serif" font-size="14" lengthAdjust="spacing" textLength="86.3721" x="269.5" y="748.2129">veiculo_json()</text><ellipse cx="260.5" cy="762.5371" fill="#84BE84" rx="3" ry="3" style="stroke:#038048;stroke-width:1.0;"/><text fill="#000000" font-family="sans-serif" font-size="14" lengthAdjust="spacing" textLength="93.3721" x="269.5" y="766.834">veiculos_json()</text><ellipse cx="260.5" cy="781.1582" fill="#84BE84" rx="3" ry="3" style="stroke:#038048;stroke-width:1.0;"/><text fill="#000000" font-family="sans-serif" font-size="14" lengthAdjust="spacing" textLength="174.3369" x="269.5" y="785.4551">http_handler_factos_todos()</text><ellipse cx="260.5" cy="799.7793" fill="#84BE84" rx="3" ry="3" style="stroke:#038048;stroke-width:1.0;"/><text fill="#000000" font-family="sans-serif" font-size="14" lengthAdjust="spacing" textLength="157.9922" x="269.5" y="804.0762">http_handler_responder()</text><ellipse cx="260.5" cy="818.4004" fill="#84BE84" rx="3" ry="3" style="stroke:#038048;stroke-width:1.0;"/><text fill="#000000" font-family="sans-serif" font-size="14" lengthAdjust="spacing" textLength="132.3027" x="269.5" y="822.6973">http_handler_factos()</text><ellipse cx="260.5" cy="837.0215" fill="#84BE84" rx="3" ry="3" style="stroke:#038048;stroke-width:1.0;"/><text fill="#000000" font-family="sans-serif" font-size="14" lengthAdjust="spacing" textLength="126.8477" x="269.5" y="841.3184">componentes_json()</text><ellipse cx="260.5" cy="855.6426" fill="#84BE84" rx="3" ry="3" style="stroke:#038048;stroke-width:1.0;"/><text fill="#000000" font-family="sans-serif" font-size="14" lengthAdjust="spacing" textLength="145.5303" x="269.5" y="859.9395">http_handler_veiculos()</text><ellipse cx="260.5" cy="874.2637" fill="#84BE84" rx="3" ry="3" style="stroke:#038048;stroke-width:1.0;"/><text fill="#000000" font-family="sans-serif" font-size="14" lengthAdjust="spacing" textLength="138.5439" x="269.5" y="878.5605">http_handler_porque()</text><ellipse cx="260.5" cy="892.8848" fill="#84BE84" rx="3" ry="3" style="stroke:#038048;stroke-width:1.0;"/><text fill="#000000" font-family="sans-serif" font-size="14" lengthAdjust="spacing" textLength="182.8682" x="269.5" y="897.1816">http_handler_listar_motores()</text><ellipse cx="260.5" cy="911.5059" fill="#84BE84" rx="3" ry="3" style="stroke:#038048;stroke-width:1.0;"/><text fill="#000000" font-family="sans-serif" font-size="14" lengthAdjust="spacing" textLength="165.7783" x="269.5" y="915.8027">http_handler_diagnostico()</text><ellipse cx="260.5" cy="930.127" fill="#84BE84" rx="3" ry="3" style="stroke:#038048;stroke-width:1.0;"/><text fill="#000000" font-family="sans-serif" font-size="14" lengthAdjust="spacing" textLength="242.0195" x="269.5" y="934.4238">http_handler_procurar_numero_carro()</text><ellipse cx="260.5" cy="948.748" fill="#84BE84" rx="3" ry="3" style="stroke:#038048;stroke-width:1.0;"/><text fill="#000000" font-family="sans-serif" font-size="14" lengthAdjust="spacing" textLength="129.1855" x="269.5" y="953.0449">http_handler_como()</text><ellipse cx="260.5" cy="967.3691" fill="#84BE84" rx="3" ry="3" style="stroke:#038048;stroke-width:1.0;"/><text fill="#000000" font-family="sans-serif" font-size="14" lengthAdjust="spacing" textLength="178.1924" x="269.5" y="971.666">http_handler_listar_marcas()</text><ellipse cx="260.5" cy="985.9902" fill="#84BE84" rx="3" ry="3" style="stroke:#038048;stroke-width:1.0;"/><text fill="#000000" font-family="sans-serif" font-size="14" lengthAdjust="spacing" textLength="187.5508" x="269.5" y="990.2871">http_handler_escolher_carro()</text><ellipse cx="260.5" cy="1004.6113" fill="#84BE84" rx="3" ry="3" style="stroke:#038048;stroke-width:1.0;"/><text fill="#000000" font-family="sans-serif" font-size="14" lengthAdjust="spacing" textLength="169.6885" x="269.5" y="1008.9082">http_handler_porque_nao()</text><ellipse cx="260.5" cy="1023.2324" fill="#84BE84" rx="3" ry="3" style="stroke:#038048;stroke-width:1.0;"/><text fill="#000000" font-family="sans-serif" font-size="14" lengthAdjust="spacing" textLength="92.5996" x="269.5" y="1027.5293">log_message()</text><ellipse cx="260.5" cy="1041.8535" fill="#84BE84" rx="3" ry="3" style="stroke:#038048;stroke-width:1.0;"/><text fill="#000000" font-family="sans-serif" font-size="14" lengthAdjust="spacing" textLength="89.4893" x="269.5" y="1046.1504">facto_to_text()</text></g><!--reverse link Motorinferencia to Server--><g id="link_Motorinferencia_Server"><path codeLine="123" d="M220.1,825 C231.56,825 237.36,825 249.13,825 " fill="none" id="Motorinferencia-backto-Server" style="stroke:#333399;stroke-width:1.0;"/><polygon fill="#333399" points="214.1,825,223.1,829,219.1,825,223.1,821,214.1,825" style="stroke:#333399;stroke-width:1.0;"/></g><!--link Server to Bc--><g id="link_Server_Bc"><path codeLine="124" d="M436,595.73 C436,503.4 436,405.32 436,322.21 " fill="none" id="Server-to-Bc" style="stroke:#333399;stroke-width:1.0;"/><polygon fill="#333399" points="436,316.21,432,325.21,436,321.21,440,325.21,436,316.21" style="stroke:#333399;stroke-width:1.0;"/></g><!--link Server to Diagnostico--><g id="link_Server_Diagnostico"><path codeLine="125" d="M517.51,713 C599.37,713 697.31,713 777.15,713 " fill="none" id="Server-to-Diagnostico" style="stroke:#333399;stroke-width:1.0;"/><polygon fill="#333399" points="783.15,713,774.15,709,778.15,713,774.15,717,783.15,713" style="stroke:#333399;stroke-width:1.0;"/></g><!--link Server to Escolha_carro--><g id="link_Server_Escolha_carro"><path codeLine="126" d="M517.78,825 C529.47,825 535.15,825 546.46,825 " fill="none" id="Server-to-Escolha_carro" style="stroke:#333399;stroke-width:1.0;"/><polygon fill="#333399" points="552.46,825,543.46,821,547.46,825,543.46,829,552.46,825" style="stroke:#333399;stroke-width:1.0;"/></g><!--link Diagnostico to Bc--><g id="link_Diagnostico_Bc"><path codeLine="127" d="M947.5,689.25 C947.5,481.88 947.5,110 947.5,110 C947.5,110 696.54,110 559.03,110 " fill="none" id="Diagnostico-to-Bc" style="stroke:#333399;stroke-width:1.0;"/><polygon fill="#333399" points="553.03,110,562.03,114,558.03,110,562.03,106,553.03,110" style="stroke:#333399;stroke-width:1.0;"/></g><!--link Diagnostico to Motorinferencia--><g id="link_Diagnostico_Motorinferencia"><path codeLine="128" d="M865.5,689.43 C865.5,626.77 865.5,566 865.5,566 C865.5,566 187.83,566 187.83,566 C187.83,566 187.83,620.77 187.83,683.43 " fill="none" id="Diagnostico-to-Motorinferencia" style="stroke:#333399;stroke-width:1.0;"/><polygon fill="#333399" points="187.83,689.43,191.83,680.43,187.83,684.43,183.83,680.43,187.83,689.43" style="stroke:#333399;stroke-width:1.0;"/></g><!--link Porque_nao to Motorinferencia--><g id="link_Porque_nao_Motorinferencia"><path codeLine="129" d="M161.67,536.07 C161.67,580.79 161.67,631.72 161.67,683.21 " fill="none" id="Porque_nao-to-Motorinferencia" style="stroke:#333399;stroke-width:1.0;"/><polygon fill="#333399" points="161.67,689.21,165.67,680.21,161.67,684.21,157.67,680.21,161.67,689.21" style="stroke:#333399;stroke-width:1.0;"/></g><!--reverse link Bc to Escolha_carro--><g id="link_Bc_Escolha_carro"><path codeLine="130" d="M559.05,213 C615.24,213 672.75,213 672.75,213 C672.75,213 672.75,565.82 672.75,735.68 " fill="none" id="Bc-backto-Escolha_carro" style="stroke:#333399;stroke-width:1.0;"/><polygon fill="#333399" points="553.05,213,562.05,217,558.05,213,562.05,209,553.05,213" style="stroke:#333399;stroke-width:1.0;"/></g><!--link Porque to Bc--><g id="link_Porque_Bc"><path codeLine="131" d="M348.54,162 C360.03,162 366.01,162 377.77,162 " fill="none" id="Porque-to-Bc" style="stroke:#333399;stroke-width:1.0;"/><polygon fill="#333399" points="383.77,162,374.77,158,378.77,162,374.77,166,383.77,162" style="stroke:#333399;stroke-width:1.0;"/></g><!--reverse link Bc to Porque_nao--><g id="link_Bc_Porque_nao"><path codeLine="132" d="M410,322.13 C410,363.02 410,390 410,390 C410,390 385.65,390 355.68,390 " fill="none" id="Bc-backto-Porque_nao" style="stroke:#333399;stroke-width:1.0;"/><polygon fill="#333399" points="410,316.13,406,325.13,410,321.13,414,325.13,410,316.13" style="stroke:#333399;stroke-width:1.0;"/></g><!--reverse link Bc to Como--><g id="link_Bc_Como"><path codeLine="133" d="M507.5,322.08 C507.5,353.74 507.5,378.95 507.5,403.83 " fill="none" id="Bc-backto-Como" style="stroke:#333399;stroke-width:1.0;"/><polygon fill="#333399" points="507.5,316.08,503.5,325.08,507.5,321.08,511.5,325.08,507.5,316.08" style="stroke:#333399;stroke-width:1.0;"/></g><!--reverse link Bc to Motorinferencia--><g id="link_Bc_Motorinferencia"><path codeLine="134" d="M377.77,260 C261.1,260 71.25,260 71.25,260 C71.25,260 71.25,522.14 71.25,689.31 " fill="none" id="Bc-backto-Motorinferencia" style="stroke:#333399;stroke-width:1.0;"/><polygon fill="#333399" points="383.77,260,374.77,256,378.77,260,374.77,264,383.77,260" style="stroke:#333399;stroke-width:1.0;"/></g><!--SRC=[XLRDZjis4BxhAGZi8Gq20TtkoK0GeElKjm85yW04bnhPR2YEmg6StGHzzmv5KXPjkTKQ2siulzzyC_GxyHbwuq1ejEX9ADS92cyMIFJeXH83UX1dGvEozaseSGHbZJkApgYZLqD3NuqR5NyJsYeYyRCH_3mh_VNeSNBTFleL3uTT_9lFVlSUlsVn4p-x97v6tu7Fyb_dPvOVq8MLzjFJ8lrYVe1u_AtvfsdUbJ9KT9ugMAN66KDu6q6W3oTicfJginOFUtuEXpdh3sW1vO01_I_lu_i8_ZYveDBRP8CPKFPA1qmI73K2oJC3qYbAijvEfaCPl78q62ALTGEy1fIrnpcKv8oL-pP1ahse0DvaXHUBkih8cc-pUxQ17hGPm9LaBe7F9UQSgkmCHH2a1-vNpb97cEeYps1Pm51cSFOu8BVjiD_lTWaUpP0RDocf-IZxgRvn21hH4LIEFZDH758m6YFSqUFFL0i5vMLtEIOv8f4vWw5Ixd-eI3Mz9hNK09_2Kq5tPIL7JYJ_Bz0J8xNsB0djf0jqeqSDt3ql0n1_Sf7S6LQvQcDq8jdWnSAWw3OM1ufL58t_LSZaUc4YB95eEwqhNnVG_o2UvnEtAZOwjJ73dlmoTMCTJ3_ZEgEXmdjGNgkw1PdgRXh0gswTpkJvUCMduYEIjk2MOix6kAdRWKMg2lWpsXlNWmUdZOebBCn9l6O0LFGP-HXhAAq3qXxEa0QLxa_2O-dUxNYeo2XLCMNjhHB9tbX-wyeX9wDv5Fs5CKbH4lWpt8WpWtdcUouXbu8BuN28oLN8_8MUjuLusEtYCCs0ZBDeFNwBSCDKEfKfaSrvqG-gi1bUHnip6HVTB7Tn_hdiqSEysBXoPQb0jXmd76_Cxxy_LYb-cL5AYoAdTmfXb2U-c2nKk-1wMrHwDzHATBLubDoBlmdTXb4zrx5Xl59zQP7HarsRPWdTyvRv4N3XHdMSkjKLIcoONZY0ZXSzt8rKCjaggR3WBa2hERs7z9RVClgtKrtfNMw8pUYhJLETmxo_mD_rUysdsDWXhiOZh4S-VlZcJHHRVYHui2eO7fMJ6Qd9b6ijzA7zTBrvbkDF_7jXzRAwrffwstvCdZALc_NzroOlbUWsucfCDqxvLyl7jcth5PzjSfP9PJNkpNoRj-qqhixR6zV_0W00]--></g></svg>