<svg xmlns="http://www.w3.org/2000/svg" xmlns:xlink="http://www.w3.org/1999/xlink" contentStyleType="text/css" height="832px" preserveAspectRatio="none" style="width:2394px;height:832px;background:#FFFFFF;" version="1.1" viewBox="0 0 2394 832" width="2394px" zoomAndPan="magnify"><defs/><g><!--cluster Controller--><g id="cluster_Controller"><path d="M8.5,6.0137 L76.3896,6.0137 A3.75,3.75 0 0 1 78.8896,8.5137 L85.8896,30.6348 L793.5,30.6348 A2.5,2.5 0 0 1 796,33.1348 L796,216.5137 A2.5,2.5 0 0 1 793.5,219.0137 L8.5,219.0137 A2.5,2.5 0 0 1 6,216.5137 L6,8.5137 A2.5,2.5 0 0 1 8.5,6.0137 " fill="#ADD8E6" style="stroke:#000000;stroke-width:1.5;"/><line style="stroke:#000000;stroke-width:1.5;" x1="6" x2="85.8896" y1="30.6348" y2="30.6348"/><text fill="#000000" font-family="sans-serif" font-size="14" font-weight="bold" lengthAdjust="spacing" textLength="66.8896" x="10" y="23.1211">Controller</text></g><!--cluster Service--><g id="cluster_Service"><path d="M96.5,243.0137 L147.3203,243.0137 A3.75,3.75 0 0 1 149.8203,245.5137 L156.8203,267.6348 L1326.5,267.6348 A2.5,2.5 0 0 1 1329,270.1348 L1329,491.5137 A2.5,2.5 0 0 1 1326.5,494.0137 L96.5,494.0137 A2.5,2.5 0 0 1 94,491.5137 L94,245.5137 A2.5,2.5 0 0 1 96.5,243.0137 " fill="#90EE90" style="stroke:#000000;stroke-width:1.5;"/><line style="stroke:#000000;stroke-width:1.5;" x1="94" x2="156.8203" y1="267.6348" y2="267.6348"/><text fill="#000000" font-family="sans-serif" font-size="14" font-weight="bold" lengthAdjust="spacing" textLength="49.8203" x="98" y="260.1211">Service</text></g><!--cluster Facts--><g id="cluster_Facts"><path d="M1571.5,14.0137 L1609.0723,14.0137 A3.75,3.75 0 0 1 1611.5723,16.5137 L1618.5723,38.6348 L2290.5,38.6348 A2.5,2.5 0 0 1 2293,41.1348 L2293,484.5137 A2.5,2.5 0 0 1 2290.5,487.0137 L1571.5,487.0137 A2.5,2.5 0 0 1 1569,484.5137 L1569,16.5137 A2.5,2.5 0 0 1 1571.5,14.0137 " fill="#FFFFE0" style="stroke:#000000;stroke-width:1.5;"/><line style="stroke:#000000;stroke-width:1.5;" x1="1569" x2="1618.5723" y1="38.6348" y2="38.6348"/><text fill="#000000" font-family="sans-serif" font-size="14" font-weight="bold" lengthAdjust="spacing" textLength="36.5723" x="1573" y="31.1211">Facts</text></g><!--cluster Why_Not--><g id="cluster_Why_Not"><path d="M191,518.0137 L252.6621,518.0137 A3.75,3.75 0 0 1 255.1621,520.5137 L262.1621,542.6348 L2384.5,542.6348 A2.5,2.5 0 0 1 2387,545.1348 L2387,822.5137 A2.5,2.5 0 0 1 2384.5,825.0137 L191,825.0137 A2.5,2.5 0 0 1 188.5,822.5137 L188.5,520.5137 A2.5,2.5 0 0 1 191,518.0137 " fill="#F08080" style="stroke:#000000;stroke-width:1.5;"/><line style="stroke:#000000;stroke-width:1.5;" x1="188.5" x2="262.1621" y1="542.6348" y2="542.6348"/><text fill="#000000" font-family="sans-serif" font-size="14" font-weight="bold" lengthAdjust="spacing" textLength="60.6621" x="192.5" y="535.1211">Why_Not</text></g><!--class DiagnosticController--><g id="elem_DiagnosticController"><rect codeLine="4" fill="#F1F1F1" height="159.7266" id="DiagnosticController" rx="2.5" ry="2.5" style="stroke:#181818;stroke-width:0.5;" width="758.2725" x="22" y="43.0137"/><ellipse cx="333.8589" cy="59.0137" fill="#ADD1B2" rx="11" ry="11" style="stroke:#181818;stroke-width:1.0;"/><path d="M336.6245,54.8887 Q336.7808,54.6699 336.9683,54.5605 Q337.1558,54.4512 337.3745,54.4512 Q337.7495,54.4512 337.9839,54.7168 Q338.2183,54.9668 338.2183,55.5762 L338.2183,57.0293 Q338.2183,57.6387 337.9839,57.9043 Q337.7495,58.1699 337.3745,58.1699 Q337.0308,58.1699 336.8276,57.9668 Q336.6245,57.7793 336.5151,57.2637 Q336.4683,56.9043 336.2808,56.7168 Q335.9526,56.3418 335.3433,56.123 Q334.7339,55.9043 334.1089,55.9043 Q333.3433,55.9043 332.7026,56.2324 Q332.0776,56.5605 331.5776,57.3105 Q331.0933,58.0605 331.0933,59.0918 L331.0933,60.1855 Q331.0933,61.4199 331.9839,62.248 Q332.8745,63.0605 334.4683,63.0605 Q335.4058,63.0605 336.062,62.8105 Q336.4526,62.6543 336.8745,62.2168 Q337.1401,61.9512 337.2808,61.873 Q337.437,61.7949 337.6401,61.7949 Q337.9683,61.7949 338.2183,62.0605 Q338.4839,62.3105 338.4839,62.6543 Q338.4839,62.998 338.1401,63.4043 Q337.6401,63.9824 336.8433,64.3105 Q335.7651,64.7637 334.4683,64.7637 Q332.9526,64.7637 331.7495,64.1387 Q330.7651,63.6387 330.0776,62.5762 Q329.3901,61.498 329.3901,60.2168 L329.3901,59.0605 Q329.3901,57.7324 329.9995,56.5918 Q330.6245,55.4355 331.7183,54.8262 Q332.812,54.2012 334.0464,54.2012 Q334.7808,54.2012 335.4214,54.373 Q336.0776,54.5293 336.6245,54.8887 Z " fill="#000000"/><text fill="#000000" font-family="sans-serif" font-size="14" lengthAdjust="spacing" textLength="126.0547" x="354.3589" y="64.8105">DiagnosticController</text><line style="stroke:#181818;stroke-width:0.5;" x1="23" x2="779.2725" y1="75.0137" y2="75.0137"/><rect fill="none" height="6" style="stroke:#C82930;stroke-width:1.0;" width="6" x="30" y="86.8242"/><text fill="#000000" font-family="sans-serif" font-size="14" lengthAdjust="spacing" textLength="229.5508" x="42" y="94.1211">diagnosticService: DiagnosticService</text><line style="stroke:#181818;stroke-width:1.0;" x1="23" x2="779.2725" y1="101.6348" y2="101.6348"/><ellipse cx="33" cy="116.4453" fill="#84BE84" rx="3" ry="3" style="stroke:#038048;stroke-width:1.0;"/><text fill="#000000" font-family="sans-serif" font-size="14" lengthAdjust="spacing" textLength="417.8604" x="42" y="120.7422">iniciarDiagnostico(selectedCar: Carro): ResponseEntity&lt;Resposta&gt;</text><ellipse cx="33" cy="135.0664" fill="#84BE84" rx="3" ry="3" style="stroke:#038048;stroke-width:1.0;"/><text fill="#000000" font-family="sans-serif" font-size="14" lengthAdjust="spacing" textLength="431.9014" x="42" y="139.3633">obterCaminhosDiagnostico(): ResponseEntity&lt;List&lt;DiagnosticPath&gt;&gt;</text><ellipse cx="33" cy="153.6875" fill="#84BE84" rx="3" ry="3" style="stroke:#038048;stroke-width:1.0;"/><text fill="#000000" font-family="sans-serif" font-size="14" lengthAdjust="spacing" textLength="565.7627" x="42" y="157.9844">obterPerguntaAnterior(resposta: Resposta, perguntaAtual: String): ResponseEntity&lt;String&gt;</text><ellipse cx="33" cy="172.3086" fill="#84BE84" rx="3" ry="3" style="stroke:#038048;stroke-width:1.0;"/><text fill="#000000" font-family="sans-serif" font-size="14" lengthAdjust="spacing" textLength="732.2725" x="42" y="176.6055">obterRegrasFaltantesParaDiagnosticosAlternativos(resposta: Resposta): ResponseEntity&lt;Map&lt;String, List&lt;String&gt;&gt;&gt;</text><ellipse cx="33" cy="190.9297" fill="#84BE84" rx="3" ry="3" style="stroke:#038048;stroke-width:1.0;"/><text fill="#000000" font-family="sans-serif" font-size="14" lengthAdjust="spacing" textLength="431.8877" x="42" y="195.2266">processarResposta(resposta: Resposta): ResponseEntity&lt;Resposta&gt;</text></g><!--class DiagnosticService--><g id="elem_DiagnosticService"><rect codeLine="16" fill="#F1F1F1" height="196.9688" id="DiagnosticService" rx="2.5" ry="2.5" style="stroke:#181818;stroke-width:0.5;" width="582.377" x="110" y="280.5137"/><ellipse cx="340.9146" cy="296.5137" fill="#ADD1B2" rx="11" ry="11" style="stroke:#181818;stroke-width:1.0;"/><path d="M343.6802,292.3887 Q343.8364,292.1699 344.0239,292.0605 Q344.2114,291.9512 344.4302,291.9512 Q344.8052,291.9512 345.0396,292.2168 Q345.2739,292.4668 345.2739,293.0762 L345.2739,294.5293 Q345.2739,295.1387 345.0396,295.4043 Q344.8052,295.6699 344.4302,295.6699 Q344.0864,295.6699 343.8833,295.4668 Q343.6802,295.2793 343.5708,294.7637 Q343.5239,294.4043 343.3364,294.2168 Q343.0083,293.8418 342.3989,293.623 Q341.7896,293.4043 341.1646,293.4043 Q340.3989,293.4043 339.7583,293.7324 Q339.1333,294.0605 338.6333,294.8105 Q338.1489,295.5605 338.1489,296.5918 L338.1489,297.6855 Q338.1489,298.9199 339.0396,299.748 Q339.9302,300.5605 341.5239,300.5605 Q342.4614,300.5605 343.1177,300.3105 Q343.5083,300.1543 343.9302,299.7168 Q344.1958,299.4512 344.3364,299.373 Q344.4927,299.2949 344.6958,299.2949 Q345.0239,299.2949 345.2739,299.5605 Q345.5396,299.8105 345.5396,300.1543 Q345.5396,300.498 345.1958,300.9043 Q344.6958,301.4824 343.8989,301.8105 Q342.8208,302.2637 341.5239,302.2637 Q340.0083,302.2637 338.8052,301.6387 Q337.8208,301.1387 337.1333,300.0762 Q336.4458,298.998 336.4458,297.7168 L336.4458,296.5605 Q336.4458,295.2324 337.0552,294.0918 Q337.6802,292.9355 338.7739,292.3262 Q339.8677,291.7012 341.1021,291.7012 Q341.8364,291.7012 342.4771,291.873 Q343.1333,292.0293 343.6802,292.3887 Z " fill="#000000"/><text fill="#000000" font-family="sans-serif" font-size="14" lengthAdjust="spacing" textLength="112.0479" x="361.4146" y="302.3105">DiagnosticService</text><line style="stroke:#181818;stroke-width:0.5;" x1="111" x2="691.377" y1="312.5137" y2="312.5137"/><rect fill="none" height="6" style="stroke:#C82930;stroke-width:1.0;" width="6" x="118" y="324.3242"/><text fill="#000000" font-family="sans-serif" font-size="14" lengthAdjust="spacing" textLength="154.0957" x="130" y="331.6211">diagSession: KieSession</text><rect fill="none" height="6" style="stroke:#C82930;stroke-width:1.0;" width="6" x="118" y="342.9453"/><text fill="#000000" font-family="sans-serif" font-size="14" lengthAdjust="spacing" textLength="312.0195" x="130" y="350.2422">diagnosticParserService: DiagnosticParserService</text><rect fill="none" height="6" style="stroke:#C82930;stroke-width:1.0;" width="6" x="118" y="361.5664"/><text fill="#000000" font-family="sans-serif" font-size="14" lengthAdjust="spacing" textLength="164.1514" x="130" y="368.8633">drools: DroolsWithWhyNot</text><rect fill="none" height="6" style="stroke:#C82930;stroke-width:1.0;" width="6" x="118" y="380.1875"/><text fill="#000000" font-family="sans-serif" font-size="14" lengthAdjust="spacing" textLength="177.4336" x="130" y="387.4844">respostaHandle: FactHandle</text><line style="stroke:#181818;stroke-width:1.0;" x1="111" x2="691.377" y1="394.998" y2="394.998"/><ellipse cx="121" cy="409.8086" fill="#84BE84" rx="3" ry="3" style="stroke:#038048;stroke-width:1.0;"/><text fill="#000000" font-family="sans-serif" font-size="14" lengthAdjust="spacing" textLength="556.377" x="130" y="414.1055">getMissingRulesForAlternativeDiagnoses(resposta: Resposta): Map&lt;String, List&lt;String&gt;&gt;</text><ellipse cx="121" cy="428.4297" fill="#84BE84" rx="3" ry="3" style="stroke:#038048;stroke-width:1.0;"/><text fill="#000000" font-family="sans-serif" font-size="14" lengthAdjust="spacing" textLength="303.4541" x="130" y="432.7266">iniciarDiagnostico(selectedCar: Carro): Resposta</text><ellipse cx="121" cy="447.0508" fill="#84BE84" rx="3" ry="3" style="stroke:#038048;stroke-width:1.0;"/><text fill="#000000" font-family="sans-serif" font-size="14" lengthAdjust="spacing" textLength="282.4814" x="130" y="451.3477">obterDiagnosticPaths(): List&lt;DiagnosticPath&gt;</text><ellipse cx="121" cy="465.6719" fill="#84BE84" rx="3" ry="3" style="stroke:#038048;stroke-width:1.0;"/><text fill="#000000" font-family="sans-serif" font-size="14" lengthAdjust="spacing" textLength="349.3984" x="130" y="469.9688">processarResposta(diagResposta: Resposta): Resposta</text></g><!--class DiagnosticParserService--><g id="elem_DiagnosticParserService"><rect codeLine="28" fill="#F1F1F1" height="103.8633" id="DiagnosticParserService" rx="2.5" ry="2.5" style="stroke:#181818;stroke-width:0.5;" width="264.9229" x="1048" y="327.0137"/><ellipse cx="1099.5703" cy="343.0137" fill="#ADD1B2" rx="11" ry="11" style="stroke:#181818;stroke-width:1.0;"/><path d="M1102.3359,338.8887 Q1102.4922,338.6699 1102.6797,338.5605 Q1102.8672,338.4512 1103.0859,338.4512 Q1103.4609,338.4512 1103.6953,338.7168 Q1103.9297,338.9668 1103.9297,339.5762 L1103.9297,341.0293 Q1103.9297,341.6387 1103.6953,341.9043 Q1103.4609,342.1699 1103.0859,342.1699 Q1102.7422,342.1699 1102.5391,341.9668 Q1102.3359,341.7793 1102.2266,341.2637 Q1102.1797,340.9043 1101.9922,340.7168 Q1101.6641,340.3418 1101.0547,340.123 Q1100.4453,339.9043 1099.8203,339.9043 Q1099.0547,339.9043 1098.4141,340.2324 Q1097.7891,340.5605 1097.2891,341.3105 Q1096.8047,342.0605 1096.8047,343.0918 L1096.8047,344.1855 Q1096.8047,345.4199 1097.6953,346.248 Q1098.5859,347.0605 1100.1797,347.0605 Q1101.1172,347.0605 1101.7734,346.8105 Q1102.1641,346.6543 1102.5859,346.2168 Q1102.8516,345.9512 1102.9922,345.873 Q1103.1484,345.7949 1103.3516,345.7949 Q1103.6797,345.7949 1103.9297,346.0605 Q1104.1953,346.3105 1104.1953,346.6543 Q1104.1953,346.998 1103.8516,347.4043 Q1103.3516,347.9824 1102.5547,348.3105 Q1101.4766,348.7637 1100.1797,348.7637 Q1098.6641,348.7637 1097.4609,348.1387 Q1096.4766,347.6387 1095.7891,346.5762 Q1095.1016,345.498 1095.1016,344.2168 L1095.1016,343.0605 Q1095.1016,341.7324 1095.7109,340.5918 Q1096.3359,339.4355 1097.4297,338.8262 Q1098.5234,338.2012 1099.7578,338.2012 Q1100.4922,338.2012 1101.1328,338.373 Q1101.7891,338.5293 1102.3359,338.8887 Z " fill="#000000"/><text fill="#000000" font-family="sans-serif" font-size="14" lengthAdjust="spacing" textLength="153.2822" x="1120.0703" y="348.8105">DiagnosticParserService</text><line style="stroke:#181818;stroke-width:0.5;" x1="1049" x2="1311.9229" y1="359.0137" y2="359.0137"/><rect fill="none" height="6" style="stroke:#C82930;stroke-width:1.0;" width="6" x="1056" y="370.8242"/><text fill="#000000" font-family="sans-serif" font-size="14" lengthAdjust="spacing" textLength="238.9229" x="1068" y="378.1211">diagnosticPaths: List&lt;DiagnosticPath&gt;</text><rect fill="none" height="6" style="stroke:#C82930;stroke-width:1.0;" width="6" x="1056" y="389.4453"/><text fill="#000000" font-family="sans-serif" font-size="14" lengthAdjust="spacing" textLength="232.6953" x="1068" y="396.7422">stateNodes: Map&lt;String, StateNode&gt;</text><line style="stroke:#181818;stroke-width:1.0;" x1="1049" x2="1311.9229" y1="404.2559" y2="404.2559"/><ellipse cx="1059" cy="419.0664" fill="#84BE84" rx="3" ry="3" style="stroke:#038048;stroke-width:1.0;"/><text fill="#000000" font-family="sans-serif" font-size="14" lengthAdjust="spacing" textLength="237.3164" x="1068" y="423.3633">processDiagnosticFile(filePath: String)</text></g><!--class DiagnosticPath--><g id="elem_DiagnosticPath"><rect codeLine="37" fill="#F1F1F1" height="103.8633" id="DiagnosticPath" rx="2.5" ry="2.5" style="stroke:#181818;stroke-width:0.5;" width="138.834" x="1638.5" y="367.0137"/><ellipse cx="1659.201" cy="383.0137" fill="#ADD1B2" rx="11" ry="11" style="stroke:#181818;stroke-width:1.0;"/><path d="M1661.9667,378.8887 Q1662.1229,378.6699 1662.3104,378.5605 Q1662.4979,378.4512 1662.7167,378.4512 Q1663.0917,378.4512 1663.326,378.7168 Q1663.5604,378.9668 1663.5604,379.5762 L1663.5604,381.0293 Q1663.5604,381.6387 1663.326,381.9043 Q1663.0917,382.1699 1662.7167,382.1699 Q1662.3729,382.1699 1662.1698,381.9668 Q1661.9667,381.7793 1661.8573,381.2637 Q1661.8104,380.9043 1661.6229,380.7168 Q1661.2948,380.3418 1660.6854,380.123 Q1660.076,379.9043 1659.451,379.9043 Q1658.6854,379.9043 1658.0448,380.2324 Q1657.4198,380.5605 1656.9198,381.3105 Q1656.4354,382.0605 1656.4354,383.0918 L1656.4354,384.1855 Q1656.4354,385.4199 1657.326,386.248 Q1658.2167,387.0605 1659.8104,387.0605 Q1660.7479,387.0605 1661.4042,386.8105 Q1661.7948,386.6543 1662.2167,386.2168 Q1662.4823,385.9512 1662.6229,385.873 Q1662.7792,385.7949 1662.9823,385.7949 Q1663.3104,385.7949 1663.5604,386.0605 Q1663.826,386.3105 1663.826,386.6543 Q1663.826,386.998 1663.4823,387.4043 Q1662.9823,387.9824 1662.1854,388.3105 Q1661.1073,388.7637 1659.8104,388.7637 Q1658.2948,388.7637 1657.0917,388.1387 Q1656.1073,387.6387 1655.4198,386.5762 Q1654.7323,385.498 1654.7323,384.2168 L1654.7323,383.0605 Q1654.7323,381.7324 1655.3417,380.5918 Q1655.9667,379.4355 1657.0604,378.8262 Q1658.1542,378.2012 1659.3885,378.2012 Q1660.1229,378.2012 1660.7635,378.373 Q1661.4198,378.5293 1661.9667,378.8887 Z " fill="#000000"/><text fill="#000000" font-family="sans-serif" font-size="14" lengthAdjust="spacing" textLength="94.165" x="1674.4679" y="388.8105">DiagnosticPath</text><line style="stroke:#181818;stroke-width:0.5;" x1="1639.5" x2="1776.334" y1="399.0137" y2="399.0137"/><ellipse cx="1649.5" cy="413.8242" fill="none" rx="3" ry="3" style="stroke:#038048;stroke-width:1.0;"/><text fill="#000000" font-family="sans-serif" font-size="14" lengthAdjust="spacing" textLength="103.5029" x="1658.5" y="418.1211">diagnosis: String</text><ellipse cx="1649.5" cy="432.4453" fill="none" rx="3" ry="3" style="stroke:#038048;stroke-width:1.0;"/><text fill="#000000" font-family="sans-serif" font-size="14" lengthAdjust="spacing" textLength="109.7373" x="1658.5" y="436.7422">path: List&lt;String&gt;</text><ellipse cx="1649.5" cy="451.0664" fill="none" rx="3" ry="3" style="stroke:#038048;stroke-width:1.0;"/><text fill="#000000" font-family="sans-serif" font-size="14" lengthAdjust="spacing" textLength="112.834" x="1658.5" y="455.3633">rules: List&lt;String&gt;</text><line style="stroke:#181818;stroke-width:0.5;" x1="1639.5" x2="1776.334" y1="462.877" y2="462.877"/></g><!--class Evidence--><g id="elem_Evidence"><rect codeLine="43" fill="#F1F1F1" height="103.8633" id="Evidence" rx="2.5" ry="2.5" style="stroke:#181818;stroke-width:0.5;" width="138.0547" x="1639" y="228.0137"/><ellipse cx="1675.8079" cy="244.0137" fill="#ADD1B2" rx="11" ry="11" style="stroke:#181818;stroke-width:1.0;"/><path d="M1678.5735,239.8887 Q1678.7297,239.6699 1678.9172,239.5605 Q1679.1047,239.4512 1679.3235,239.4512 Q1679.6985,239.4512 1679.9329,239.7168 Q1680.1672,239.9668 1680.1672,240.5762 L1680.1672,242.0293 Q1680.1672,242.6387 1679.9329,242.9043 Q1679.6985,243.1699 1679.3235,243.1699 Q1678.9797,243.1699 1678.7766,242.9668 Q1678.5735,242.7793 1678.4641,242.2637 Q1678.4172,241.9043 1678.2297,241.7168 Q1677.9016,241.3418 1677.2922,241.123 Q1676.6829,240.9043 1676.0579,240.9043 Q1675.2922,240.9043 1674.6516,241.2324 Q1674.0266,241.5605 1673.5266,242.3105 Q1673.0422,243.0605 1673.0422,244.0918 L1673.0422,245.1855 Q1673.0422,246.4199 1673.9329,247.248 Q1674.8235,248.0605 1676.4172,248.0605 Q1677.3547,248.0605 1678.011,247.8105 Q1678.4016,247.6543 1678.8235,247.2168 Q1679.0891,246.9512 1679.2297,246.873 Q1679.386,246.7949 1679.5891,246.7949 Q1679.9172,246.7949 1680.1672,247.0605 Q1680.4329,247.3105 1680.4329,247.6543 Q1680.4329,247.998 1680.0891,248.4043 Q1679.5891,248.9824 1678.7922,249.3105 Q1677.7141,249.7637 1676.4172,249.7637 Q1674.9016,249.7637 1673.6985,249.1387 Q1672.7141,248.6387 1672.0266,247.5762 Q1671.3391,246.498 1671.3391,245.2168 L1671.3391,244.0605 Q1671.3391,242.7324 1671.9485,241.5918 Q1672.5735,240.4355 1673.6672,239.8262 Q1674.761,239.2012 1675.9954,239.2012 Q1676.7297,239.2012 1677.3704,239.373 Q1678.0266,239.5293 1678.5735,239.8887 Z " fill="#000000"/><text fill="#000000" font-family="sans-serif" font-size="14" lengthAdjust="spacing" textLength="57.5928" x="1694.6541" y="249.8105">Evidence</text><line style="stroke:#181818;stroke-width:0.5;" x1="1640" x2="1776.0547" y1="260.0137" y2="260.0137"/><rect fill="none" height="6" style="stroke:#C82930;stroke-width:1.0;" width="6" x="1647" y="271.8242"/><text fill="#000000" font-family="sans-serif" font-size="14" lengthAdjust="spacing" textLength="112.0547" x="1659" y="279.1211">description: String</text><rect fill="none" height="6" style="stroke:#C82930;stroke-width:1.0;" width="6" x="1647" y="290.4453"/><text fill="#000000" font-family="sans-serif" font-size="14" lengthAdjust="spacing" textLength="38.8965" x="1659" y="297.7422">fact: T</text><rect fill="none" height="6" style="stroke:#C82930;stroke-width:1.0;" width="6" x="1647" y="309.0664"/><text fill="#000000" font-family="sans-serif" font-size="14" lengthAdjust="spacing" textLength="50.5859" x="1659" y="316.3633">value: V</text><line style="stroke:#181818;stroke-width:0.5;" x1="1640" x2="1776.0547" y1="323.877" y2="323.877"/></g><!--class StateNode--><g id="elem_StateNode"><rect codeLine="49" fill="#F1F1F1" height="141.1055" id="StateNode" rx="2.5" ry="2.5" style="stroke:#181818;stroke-width:0.5;" width="246.2061" x="1585" y="51.5137"/><ellipse cx="1670.7739" cy="67.5137" fill="#ADD1B2" rx="11" ry="11" style="stroke:#181818;stroke-width:1.0;"/><path d="M1673.5396,63.3887 Q1673.6958,63.1699 1673.8833,63.0605 Q1674.0708,62.9512 1674.2896,62.9512 Q1674.6646,62.9512 1674.8989,63.2168 Q1675.1333,63.4668 1675.1333,64.0762 L1675.1333,65.5293 Q1675.1333,66.1387 1674.8989,66.4043 Q1674.6646,66.6699 1674.2896,66.6699 Q1673.9458,66.6699 1673.7427,66.4668 Q1673.5396,66.2793 1673.4302,65.7637 Q1673.3833,65.4043 1673.1958,65.2168 Q1672.8677,64.8418 1672.2583,64.623 Q1671.6489,64.4043 1671.0239,64.4043 Q1670.2583,64.4043 1669.6177,64.7324 Q1668.9927,65.0605 1668.4927,65.8105 Q1668.0083,66.5605 1668.0083,67.5918 L1668.0083,68.6855 Q1668.0083,69.9199 1668.8989,70.748 Q1669.7896,71.5605 1671.3833,71.5605 Q1672.3208,71.5605 1672.9771,71.3105 Q1673.3677,71.1543 1673.7896,70.7168 Q1674.0552,70.4512 1674.1958,70.373 Q1674.3521,70.2949 1674.5552,70.2949 Q1674.8833,70.2949 1675.1333,70.5605 Q1675.3989,70.8105 1675.3989,71.1543 Q1675.3989,71.498 1675.0552,71.9043 Q1674.5552,72.4824 1673.7583,72.8105 Q1672.6802,73.2637 1671.3833,73.2637 Q1669.8677,73.2637 1668.6646,72.6387 Q1667.6802,72.1387 1666.9927,71.0762 Q1666.3052,69.998 1666.3052,68.7168 L1666.3052,67.5605 Q1666.3052,66.2324 1666.9146,65.0918 Q1667.5396,63.9355 1668.6333,63.3262 Q1669.7271,62.7012 1670.9614,62.7012 Q1671.6958,62.7012 1672.3364,62.873 Q1672.9927,63.0293 1673.5396,63.3887 Z " fill="#000000"/><text fill="#000000" font-family="sans-serif" font-size="14" lengthAdjust="spacing" textLength="66.1582" x="1691.2739" y="73.3105">StateNode</text><line style="stroke:#181818;stroke-width:0.5;" x1="1586" x2="1830.2061" y1="83.5137" y2="83.5137"/><rect fill="none" height="6" style="stroke:#C82930;stroke-width:1.0;" width="6" x="1593" y="95.3242"/><text fill="#000000" font-family="sans-serif" font-size="14" lengthAdjust="spacing" textLength="103.5029" x="1605" y="102.6211">diagnosis: String</text><rect fill="none" height="6" style="stroke:#C82930;stroke-width:1.0;" width="6" x="1593" y="113.9453"/><text fill="#000000" font-family="sans-serif" font-size="14" lengthAdjust="spacing" textLength="123.7305" x="1605" y="121.2422">estadoName: String</text><rect fill="none" height="6" style="stroke:#C82930;stroke-width:1.0;" width="6" x="1593" y="132.5664"/><text fill="#000000" font-family="sans-serif" font-size="14" lengthAdjust="spacing" textLength="161.8818" x="1605" y="139.8633">isDiagnosisState: boolean</text><rect fill="none" height="6" style="stroke:#C82930;stroke-width:1.0;" width="6" x="1593" y="151.1875"/><text fill="#000000" font-family="sans-serif" font-size="14" lengthAdjust="spacing" textLength="171.1924" x="1605" y="158.4844">transitions: List&lt;Transition&gt;</text><line style="stroke:#181818;stroke-width:1.0;" x1="1586" x2="1830.2061" y1="165.998" y2="165.998"/><ellipse cx="1596" cy="180.8086" fill="#84BE84" rx="3" ry="3" style="stroke:#038048;stroke-width:1.0;"/><text fill="#000000" font-family="sans-serif" font-size="14" lengthAdjust="spacing" textLength="220.2061" x="1605" y="185.1055">addTransition(transition: Transition)</text></g><!--class Transition--><g id="elem_Transition"><rect codeLine="58" fill="#F1F1F1" height="103.8633" id="Transition" rx="2.5" ry="2.5" style="stroke:#181818;stroke-width:0.5;" width="171.5303" x="2105" y="76.0137"/><ellipse cx="2155.7808" cy="92.0137" fill="#ADD1B2" rx="11" ry="11" style="stroke:#181818;stroke-width:1.0;"/><path d="M2158.5464,87.8887 Q2158.7026,87.6699 2158.8901,87.5605 Q2159.0776,87.4512 2159.2964,87.4512 Q2159.6714,87.4512 2159.9058,87.7168 Q2160.1401,87.9668 2160.1401,88.5762 L2160.1401,90.0293 Q2160.1401,90.6387 2159.9058,90.9043 Q2159.6714,91.1699 2159.2964,91.1699 Q2158.9526,91.1699 2158.7495,90.9668 Q2158.5464,90.7793 2158.437,90.2637 Q2158.3901,89.9043 2158.2026,89.7168 Q2157.8745,89.3418 2157.2651,89.123 Q2156.6558,88.9043 2156.0308,88.9043 Q2155.2651,88.9043 2154.6245,89.2324 Q2153.9995,89.5605 2153.4995,90.3105 Q2153.0151,91.0605 2153.0151,92.0918 L2153.0151,93.1855 Q2153.0151,94.4199 2153.9058,95.248 Q2154.7964,96.0605 2156.3901,96.0605 Q2157.3276,96.0605 2157.9839,95.8105 Q2158.3745,95.6543 2158.7964,95.2168 Q2159.062,94.9512 2159.2026,94.873 Q2159.3589,94.7949 2159.562,94.7949 Q2159.8901,94.7949 2160.1401,95.0605 Q2160.4058,95.3105 2160.4058,95.6543 Q2160.4058,95.998 2160.062,96.4043 Q2159.562,96.9824 2158.7651,97.3105 Q2157.687,97.7637 2156.3901,97.7637 Q2154.8745,97.7637 2153.6714,97.1387 Q2152.687,96.6387 2151.9995,95.5762 Q2151.312,94.498 2151.312,93.2168 L2151.312,92.0605 Q2151.312,90.7324 2151.9214,89.5918 Q2152.5464,88.4355 2153.6401,87.8262 Q2154.7339,87.2012 2155.9683,87.2012 Q2156.7026,87.2012 2157.3433,87.373 Q2157.9995,87.5293 2158.5464,87.8887 Z " fill="#000000"/><text fill="#000000" font-family="sans-serif" font-size="14" lengthAdjust="spacing" textLength="61.4688" x="2176.2808" y="97.8105">Transition</text><line style="stroke:#181818;stroke-width:0.5;" x1="2106" x2="2275.5303" y1="108.0137" y2="108.0137"/><rect fill="none" height="6" style="stroke:#C82930;stroke-width:1.0;" width="6" x="2113" y="119.8242"/><text fill="#000000" font-family="sans-serif" font-size="14" lengthAdjust="spacing" textLength="145.5303" x="2125" y="127.1211">conditions: List&lt;String&gt;</text><rect fill="none" height="6" style="stroke:#C82930;stroke-width:1.0;" width="6" x="2113" y="138.4453"/><text fill="#000000" font-family="sans-serif" font-size="14" lengthAdjust="spacing" textLength="105.041" x="2125" y="145.7422">ruleName: String</text><rect fill="none" height="6" style="stroke:#C82930;stroke-width:1.0;" width="6" x="2113" y="157.0664"/><text fill="#000000" font-family="sans-serif" font-size="14" lengthAdjust="spacing" textLength="142.4268" x="2125" y="164.3633">targetState: StateNode</text><line style="stroke:#181818;stroke-width:0.5;" x1="2106" x2="2275.5303" y1="171.877" y2="171.877"/></g><!--class DroolsWithWhyNot--><g id="elem_DroolsWithWhyNot"><rect codeLine="66" fill="#F1F1F1" height="234.2109" id="DroolsWithWhyNot" rx="2.5" ry="2.5" style="stroke:#181818;stroke-width:0.5;" width="392.5225" x="984" y="558.0137"/><ellipse cx="1116.8906" cy="574.0137" fill="#ADD1B2" rx="11" ry="11" style="stroke:#181818;stroke-width:1.0;"/><path d="M1119.6563,569.8887 Q1119.8125,569.6699 1120,569.5605 Q1120.1875,569.4512 1120.4063,569.4512 Q1120.7813,569.4512 1121.0156,569.7168 Q1121.25,569.9668 1121.25,570.5762 L1121.25,572.0293 Q1121.25,572.6387 1121.0156,572.9043 Q1120.7813,573.1699 1120.4063,573.1699 Q1120.0625,573.1699 1119.8594,572.9668 Q1119.6563,572.7793 1119.5469,572.2637 Q1119.5,571.9043 1119.3125,571.7168 Q1118.9844,571.3418 1118.375,571.123 Q1117.7656,570.9043 1117.1406,570.9043 Q1116.375,570.9043 1115.7344,571.2324 Q1115.1094,571.5605 1114.6094,572.3105 Q1114.125,573.0605 1114.125,574.0918 L1114.125,575.1855 Q1114.125,576.4199 1115.0156,577.248 Q1115.9063,578.0605 1117.5,578.0605 Q1118.4375,578.0605 1119.0938,577.8105 Q1119.4844,577.6543 1119.9063,577.2168 Q1120.1719,576.9512 1120.3125,576.873 Q1120.4688,576.7949 1120.6719,576.7949 Q1121,576.7949 1121.25,577.0605 Q1121.5156,577.3105 1121.5156,577.6543 Q1121.5156,577.998 1121.1719,578.4043 Q1120.6719,578.9824 1119.875,579.3105 Q1118.7969,579.7637 1117.5,579.7637 Q1115.9844,579.7637 1114.7813,579.1387 Q1113.7969,578.6387 1113.1094,577.5762 Q1112.4219,576.498 1112.4219,575.2168 L1112.4219,574.0605 Q1112.4219,572.7324 1113.0313,571.5918 Q1113.6563,570.4355 1114.75,569.8262 Q1115.8438,569.2012 1117.0781,569.2012 Q1117.8125,569.2012 1118.4531,569.373 Q1119.1094,569.5293 1119.6563,569.8887 Z " fill="#000000"/><text fill="#000000" font-family="sans-serif" font-size="14" lengthAdjust="spacing" textLength="118.2412" x="1137.3906" y="579.8105">DroolsWithWhyNot</text><line style="stroke:#181818;stroke-width:0.5;" x1="985" x2="1375.5225" y1="590.0137" y2="590.0137"/><rect fill="none" height="6" style="stroke:#C82930;stroke-width:1.0;" width="6" x="992" y="601.8242"/><text fill="#000000" font-family="sans-serif" font-size="14" lengthAdjust="spacing" textLength="80.9375" x="1004" y="609.1211">LOG: Logger</text><rect fill="none" height="6" style="stroke:#C82930;stroke-width:1.0;" width="6" x="992" y="620.4453"/><text fill="#000000" font-family="sans-serif" font-size="14" lengthAdjust="spacing" textLength="128.3994" x="1004" y="627.7422">factsPackage: String</text><rect fill="none" height="6" style="stroke:#C82930;stroke-width:1.0;" width="6" x="992" y="639.0664"/><text fill="#000000" font-family="sans-serif" font-size="14" lengthAdjust="spacing" textLength="123.751" x="1004" y="646.3633">kb: KnowledgeBase</text><rect fill="none" height="6" style="stroke:#C82930;stroke-width:1.0;" width="6" x="992" y="657.6875"/><text fill="#000000" font-family="sans-serif" font-size="14" lengthAdjust="spacing" textLength="125.2891" x="1004" y="664.9844">session: KieSession</text><rect fill="none" height="6" style="stroke:#C82930;stroke-width:1.0;" width="6" x="992" y="676.3086"/><text fill="#000000" font-family="sans-serif" font-size="14" lengthAdjust="spacing" textLength="173.5371" x="1004" y="683.6055">triggeredRules: List&lt;String&gt;</text><rect fill="none" height="6" style="stroke:#C82930;stroke-width:1.0;" width="6" x="992" y="694.9297"/><text fill="#000000" font-family="sans-serif" font-size="14" lengthAdjust="spacing" textLength="189.1094" x="1004" y="702.2266">untriggeredRules: List&lt;String&gt;</text><line style="stroke:#181818;stroke-width:1.0;" x1="985" x2="1375.5225" y1="709.7402" y2="709.7402"/><ellipse cx="995" cy="724.5508" fill="#84BE84" rx="3" ry="3" style="stroke:#038048;stroke-width:1.0;"/><text fill="#000000" font-family="sans-serif" font-size="14" lengthAdjust="spacing" textLength="196.0957" x="1004" y="728.8477">createKieSession(): KieSession</text><ellipse cx="995" cy="743.1719" fill="#84BE84" rx="3" ry="3" style="stroke:#038048;stroke-width:1.0;"/><text fill="#000000" font-family="sans-serif" font-size="14" lengthAdjust="spacing" textLength="57.5791" x="1004" y="747.4688">dispose()</text><ellipse cx="995" cy="761.793" fill="#84BE84" rx="3" ry="3" style="stroke:#038048;stroke-width:1.0;"/><text fill="#000000" font-family="sans-serif" font-size="14" lengthAdjust="spacing" textLength="366.5225" x="1004" y="766.0898">getWhyNotExplanation(expectedConclusion: String): String</text><ellipse cx="995" cy="780.4141" fill="#84BE84" rx="3" ry="3" style="stroke:#038048;stroke-width:1.0;"/><text fill="#000000" font-family="sans-serif" font-size="14" lengthAdjust="spacing" textLength="281.6406" x="1004" y="784.7109">init(factsPackage: String): DroolsWithWhyNot</text></g><!--class KnowledgeBase--><g id="elem_KnowledgeBase"><rect codeLine="80" fill="#F1F1F1" height="252.832" id="KnowledgeBase" rx="2.5" ry="2.5" style="stroke:#181818;stroke-width:0.5;" width="355.8887" x="1530" y="555.5137"/><ellipse cx="1653.1016" cy="571.5137" fill="#ADD1B2" rx="11" ry="11" style="stroke:#181818;stroke-width:1.0;"/><path d="M1655.8672,567.3887 Q1656.0234,567.1699 1656.2109,567.0605 Q1656.3984,566.9512 1656.6172,566.9512 Q1656.9922,566.9512 1657.2266,567.2168 Q1657.4609,567.4668 1657.4609,568.0762 L1657.4609,569.5293 Q1657.4609,570.1387 1657.2266,570.4043 Q1656.9922,570.6699 1656.6172,570.6699 Q1656.2734,570.6699 1656.0703,570.4668 Q1655.8672,570.2793 1655.7578,569.7637 Q1655.7109,569.4043 1655.5234,569.2168 Q1655.1953,568.8418 1654.5859,568.623 Q1653.9766,568.4043 1653.3516,568.4043 Q1652.5859,568.4043 1651.9453,568.7324 Q1651.3203,569.0605 1650.8203,569.8105 Q1650.3359,570.5605 1650.3359,571.5918 L1650.3359,572.6855 Q1650.3359,573.9199 1651.2266,574.748 Q1652.1172,575.5605 1653.7109,575.5605 Q1654.6484,575.5605 1655.3047,575.3105 Q1655.6953,575.1543 1656.1172,574.7168 Q1656.3828,574.4512 1656.5234,574.373 Q1656.6797,574.2949 1656.8828,574.2949 Q1657.2109,574.2949 1657.4609,574.5605 Q1657.7266,574.8105 1657.7266,575.1543 Q1657.7266,575.498 1657.3828,575.9043 Q1656.8828,576.4824 1656.0859,576.8105 Q1655.0078,577.2637 1653.7109,577.2637 Q1652.1953,577.2637 1650.9922,576.6387 Q1650.0078,576.1387 1649.3203,575.0762 Q1648.6328,573.998 1648.6328,572.7168 L1648.6328,571.5605 Q1648.6328,570.2324 1649.2422,569.0918 Q1649.8672,567.9355 1650.9609,567.3262 Q1652.0547,566.7012 1653.2891,566.7012 Q1654.0234,566.7012 1654.6641,566.873 Q1655.3203,567.0293 1655.8672,567.3887 Z " fill="#000000"/><text fill="#000000" font-family="sans-serif" font-size="14" lengthAdjust="spacing" textLength="101.1855" x="1673.6016" y="577.3105">KnowledgeBase</text><line style="stroke:#181818;stroke-width:0.5;" x1="1531" x2="1884.8887" y1="587.5137" y2="587.5137"/><rect fill="none" height="6" style="stroke:#C82930;stroke-width:1.0;" width="6" x="1538" y="599.3242"/><text fill="#000000" font-family="sans-serif" font-size="14" lengthAdjust="spacing" textLength="80.9375" x="1550" y="606.6211">LOG: Logger</text><rect fill="none" height="6" style="stroke:#C82930;stroke-width:1.0;" width="6" x="1538" y="617.9453"/><text fill="#000000" font-family="sans-serif" font-size="14" lengthAdjust="spacing" textLength="133.8477" x="1550" y="625.2422">drlPaths: List&lt;String&gt;</text><rect fill="none" height="6" style="stroke:#C82930;stroke-width:1.0;" width="6" x="1538" y="636.5664"/><text fill="#000000" font-family="sans-serif" font-size="14" lengthAdjust="spacing" textLength="233.4404" x="1550" y="643.8633">dynamicQueries: Map&lt;String, String&gt;</text><rect fill="none" height="6" style="stroke:#C82930;stroke-width:1.0;" width="6" x="1538" y="655.1875"/><text fill="#000000" font-family="sans-serif" font-size="14" lengthAdjust="spacing" textLength="128.3994" x="1550" y="662.4844">factsPackage: String</text><rect fill="none" height="6" style="stroke:#C82930;stroke-width:1.0;" width="6" x="1538" y="673.8086"/><text fill="#000000" font-family="sans-serif" font-size="14" lengthAdjust="spacing" textLength="109.7305" x="1550" y="681.1055">kieBase: KieBase</text><rect fill="none" height="6" style="stroke:#C82930;stroke-width:1.0;" width="6" x="1538" y="692.4297"/><text fill="#000000" font-family="sans-serif" font-size="14" lengthAdjust="spacing" textLength="179.7305" x="1550" y="699.7266">rules: Map&lt;String, RuleWM&gt;</text><rect fill="none" height="6" style="stroke:#C82930;stroke-width:1.0;" width="6" x="1538" y="711.0508"/><text fill="#000000" font-family="sans-serif" font-size="14" lengthAdjust="spacing" textLength="178.1719" x="1550" y="718.3477">rulesDescr: List&lt;RuleDescr&gt;</text><line style="stroke:#181818;stroke-width:1.0;" x1="1531" x2="1884.8887" y1="725.8613" y2="725.8613"/><rect fill="#F24D5C" height="6" style="stroke:#C82930;stroke-width:1.0;" width="6" x="1538" y="737.6719"/><text fill="#000000" font-family="sans-serif" font-size="14" lengthAdjust="spacing" textLength="329.8887" x="1550" y="744.9688">convertConstructorToDRL(constructor: String): String</text><rect fill="#F24D5C" height="6" style="stroke:#C82930;stroke-width:1.0;" width="6" x="1538" y="756.293"/><text fill="#000000" font-family="sans-serif" font-size="14" lengthAdjust="spacing" textLength="160.3027" x="1550" y="763.5898">createKieBase(): KieBase</text><rect fill="#F24D5C" height="6" style="stroke:#C82930;stroke-width:1.0;" width="6" x="1538" y="774.9141"/><text fill="#000000" font-family="sans-serif" font-size="14" lengthAdjust="spacing" textLength="161.8271" x="1550" y="782.2109">findDrlFiles(): List&lt;String&gt;</text><rect fill="#F24D5C" height="6" style="stroke:#C82930;stroke-width:1.0;" width="6" x="1538" y="793.5352"/><text fill="#000000" font-family="sans-serif" font-size="14" lengthAdjust="spacing" textLength="157.9648" x="1550" y="800.832">generateQueries(): String</text></g><!--class RuleWM--><g id="elem_RuleWM"><rect codeLine="95" fill="#F1F1F1" height="141.1055" id="RuleWM" rx="2.5" ry="2.5" style="stroke:#181818;stroke-width:0.5;" width="359.8125" x="2011" y="611.5137"/><ellipse cx="2159.8218" cy="627.5137" fill="#ADD1B2" rx="11" ry="11" style="stroke:#181818;stroke-width:1.0;"/><path d="M2162.5874,623.3887 Q2162.7437,623.1699 2162.9312,623.0605 Q2163.1187,622.9512 2163.3374,622.9512 Q2163.7124,622.9512 2163.9468,623.2168 Q2164.1812,623.4668 2164.1812,624.0762 L2164.1812,625.5293 Q2164.1812,626.1387 2163.9468,626.4043 Q2163.7124,626.6699 2163.3374,626.6699 Q2162.9937,626.6699 2162.7905,626.4668 Q2162.5874,626.2793 2162.478,625.7637 Q2162.4312,625.4043 2162.2437,625.2168 Q2161.9155,624.8418 2161.3062,624.623 Q2160.6968,624.4043 2160.0718,624.4043 Q2159.3062,624.4043 2158.6655,624.7324 Q2158.0405,625.0605 2157.5405,625.8105 Q2157.0562,626.5605 2157.0562,627.5918 L2157.0562,628.6855 Q2157.0562,629.9199 2157.9468,630.748 Q2158.8374,631.5605 2160.4312,631.5605 Q2161.3687,631.5605 2162.0249,631.3105 Q2162.4155,631.1543 2162.8374,630.7168 Q2163.103,630.4512 2163.2437,630.373 Q2163.3999,630.2949 2163.603,630.2949 Q2163.9312,630.2949 2164.1812,630.5605 Q2164.4468,630.8105 2164.4468,631.1543 Q2164.4468,631.498 2164.103,631.9043 Q2163.603,632.4824 2162.8062,632.8105 Q2161.728,633.2637 2160.4312,633.2637 Q2158.9155,633.2637 2157.7124,632.6387 Q2156.728,632.1387 2156.0405,631.0762 Q2155.353,629.998 2155.353,628.7168 L2155.353,627.5605 Q2155.353,626.2324 2155.9624,625.0918 Q2156.5874,623.9355 2157.6812,623.3262 Q2158.7749,622.7012 2160.0093,622.7012 Q2160.7437,622.7012 2161.3843,622.873 Q2162.0405,623.0293 2162.5874,623.3887 Z " fill="#000000"/><text fill="#000000" font-family="sans-serif" font-size="14" lengthAdjust="spacing" textLength="53.6689" x="2180.3218" y="633.3105">RuleWM</text><line style="stroke:#181818;stroke-width:0.5;" x1="2012" x2="2369.8125" y1="643.5137" y2="643.5137"/><rect fill="none" height="6" style="stroke:#C82930;stroke-width:1.0;" width="6" x="2019" y="655.3242"/><text fill="#000000" font-family="sans-serif" font-size="14" lengthAdjust="spacing" textLength="217.1094" x="2031" y="662.6211">ruleConditions: List&lt;PatternDescr&gt;</text><rect fill="none" height="6" style="stroke:#C82930;stroke-width:1.0;" width="6" x="2019" y="673.9453"/><text fill="#000000" font-family="sans-serif" font-size="14" lengthAdjust="spacing" textLength="154.0957" x="2031" y="681.2422">ruleConsequence: String</text><rect fill="none" height="6" style="stroke:#C82930;stroke-width:1.0;" width="6" x="2019" y="692.5664"/><text fill="#000000" font-family="sans-serif" font-size="14" lengthAdjust="spacing" textLength="133.0342" x="2031" y="699.8633">ruleDescr: RuleDescr</text><rect fill="none" height="6" style="stroke:#C82930;stroke-width:1.0;" width="6" x="2019" y="711.1875"/><text fill="#000000" font-family="sans-serif" font-size="14" lengthAdjust="spacing" textLength="105.041" x="2031" y="718.4844">ruleName: String</text><line style="stroke:#181818;stroke-width:1.0;" x1="2012" x2="2369.8125" y1="725.998" y2="725.998"/><rect fill="#F24D5C" height="6" style="stroke:#C82930;stroke-width:1.0;" width="6" x="2019" y="737.8086"/><text fill="#000000" font-family="sans-serif" font-size="14" lengthAdjust="spacing" textLength="333.8125" x="2031" y="745.1055">getAllMatches(text: String, regex: String): List&lt;String&gt;</text></g><!--class WhyNot--><g id="elem_WhyNot"><rect codeLine="104" fill="#F1F1F1" height="103.8633" id="WhyNot" rx="2.5" ry="2.5" style="stroke:#181818;stroke-width:0.5;" width="392.5225" x="204.5" y="623.0137"/><ellipse cx="371.6182" cy="639.0137" fill="#ADD1B2" rx="11" ry="11" style="stroke:#181818;stroke-width:1.0;"/><path d="M374.3838,634.8887 Q374.54,634.6699 374.7275,634.5605 Q374.915,634.4512 375.1338,634.4512 Q375.5088,634.4512 375.7432,634.7168 Q375.9775,634.9668 375.9775,635.5762 L375.9775,637.0293 Q375.9775,637.6387 375.7432,637.9043 Q375.5088,638.1699 375.1338,638.1699 Q374.79,638.1699 374.5869,637.9668 Q374.3838,637.7793 374.2744,637.2637 Q374.2275,636.9043 374.04,636.7168 Q373.7119,636.3418 373.1025,636.123 Q372.4932,635.9043 371.8682,635.9043 Q371.1025,635.9043 370.4619,636.2324 Q369.8369,636.5605 369.3369,637.3105 Q368.8525,638.0605 368.8525,639.0918 L368.8525,640.1855 Q368.8525,641.4199 369.7432,642.248 Q370.6338,643.0605 372.2275,643.0605 Q373.165,643.0605 373.8213,642.8105 Q374.2119,642.6543 374.6338,642.2168 Q374.8994,641.9512 375.04,641.873 Q375.1963,641.7949 375.3994,641.7949 Q375.7275,641.7949 375.9775,642.0605 Q376.2432,642.3105 376.2432,642.6543 Q376.2432,642.998 375.8994,643.4043 Q375.3994,643.9824 374.6025,644.3105 Q373.5244,644.7637 372.2275,644.7637 Q370.7119,644.7637 369.5088,644.1387 Q368.5244,643.6387 367.8369,642.5762 Q367.1494,641.498 367.1494,640.2168 L367.1494,639.0605 Q367.1494,637.7324 367.7588,636.5918 Q368.3838,635.4355 369.4775,634.8262 Q370.5713,634.2012 371.8057,634.2012 Q372.54,634.2012 373.1807,634.373 Q373.8369,634.5293 374.3838,634.8887 Z " fill="#000000"/><text fill="#000000" font-family="sans-serif" font-size="14" lengthAdjust="spacing" textLength="49.7861" x="392.1182" y="644.8105">WhyNot</text><line style="stroke:#181818;stroke-width:0.5;" x1="205.5" x2="596.0225" y1="655.0137" y2="655.0137"/><rect fill="none" height="6" style="stroke:#C82930;stroke-width:1.0;" width="6" x="212.5" y="666.8242"/><text fill="#000000" font-family="sans-serif" font-size="14" lengthAdjust="spacing" textLength="241.9375" x="224.5" y="674.1211">droolsWithWhyNot: DroolsWithWhyNot</text><line style="stroke:#181818;stroke-width:1.0;" x1="205.5" x2="596.0225" y1="681.6348" y2="681.6348"/><ellipse cx="215.5" cy="696.4453" fill="#84BE84" rx="3" ry="3" style="stroke:#038048;stroke-width:1.0;"/><text fill="#000000" font-family="sans-serif" font-size="14" lengthAdjust="spacing" textLength="366.5225" x="224.5" y="700.7422">getWhyNotExplanation(expectedConclusion: String): String</text><ellipse cx="215.5" cy="715.0664" fill="#84BE84" rx="3" ry="3" style="stroke:#038048;stroke-width:1.0;"/><text fill="#000000" font-family="sans-serif" font-size="14" lengthAdjust="spacing" textLength="326.7236" x="224.5" y="719.3633">init(droolsWithWhyNot: DroolsWithWhyNot): WhyNot</text></g><!--reverse link DiagnosticService to DiagnosticController--><g id="link_DiagnosticService_DiagnosticController"><path codeLine="112" d="M401,274.4037 C401,248.9137 401,227.7737 401,203.3337 " fill="none" id="DiagnosticService-backto-DiagnosticController" style="stroke:#181818;stroke-width:1.0;"/><polygon fill="#181818" points="401,280.4037,405,271.4037,401,275.4037,397,271.4037,401,280.4037" style="stroke:#181818;stroke-width:1.0;"/><text fill="#000000" font-family="sans-serif" font-size="13" lengthAdjust="spacing" textLength="101.8862" x="338" y="247.292">diagnosticService</text></g><!--link DiagnosticService to DiagnosticParserService--><g id="link_DiagnosticService_DiagnosticParserService"><path codeLine="113" d="M692.07,379.0137 C814.3,379.0137 944.47,379.0137 1041.75,379.0137 " fill="none" id="DiagnosticService-to-DiagnosticParserService" style="stroke:#181818;stroke-width:1.0;"/><polygon fill="#181818" points="1047.75,379.0137,1038.75,375.0137,1042.75,379.0137,1038.75,383.0137,1047.75,379.0137" style="stroke:#181818;stroke-width:1.0;"/><text fill="#000000" font-family="sans-serif" font-size="13" lengthAdjust="spacing" textLength="140.1753" x="813" y="375.042">diagnosticParserService</text></g><!--link DiagnosticParserService to DiagnosticPath--><g id="link_DiagnosticParserService_DiagnosticPath"><path codeLine="114" d="M1313.09,389.0337 C1416.3,396.8837 1549.8473,407.0479 1632.1573,413.3179 " fill="none" id="DiagnosticParserService-to-DiagnosticPath" style="stroke:#181818;stroke-width:1.0;"/><polygon fill="#181818" points="1638.14,413.7737,1629.4698,409.1016,1633.1544,413.3939,1628.8622,417.0785,1638.14,413.7737" style="stroke:#181818;stroke-width:1.0;"/><text fill="#000000" font-family="sans-serif" font-size="13" lengthAdjust="spacing" textLength="91.7808" x="1408" y="393.042">diagnosticPaths</text></g><!--link DiagnosticParserService to StateNode--><g id="link_DiagnosticParserService_StateNode"><path codeLine="115" d="M1287.84,327.0037 C1373.77,284.9837 1489.3901,228.4399 1579.3101,184.4599 " fill="none" id="DiagnosticParserService-to-StateNode" style="stroke:#181818;stroke-width:1.0;"/><polygon fill="#181818" points="1584.7,181.8237,1574.8578,182.1847,1580.2085,184.0205,1578.3727,189.3712,1584.7,181.8237" style="stroke:#181818;stroke-width:1.0;"/><text fill="#000000" font-family="sans-serif" font-size="13" lengthAdjust="spacing" textLength="65.7617" x="1421" y="224.042">stateNodes</text></g><!--link DiagnosticService to DroolsWithWhyNot--><g id="link_DiagnosticService_DroolsWithWhyNot"><path codeLine="116" d="M660.9,477.5737 C766.25,517.6837 880.3826,561.139 978.2326,598.389 " fill="none" id="DiagnosticService-to-DroolsWithWhyNot" style="stroke:#181818;stroke-width:1.0;"/><polygon fill="#181818" points="983.84,600.5237,976.852,593.5834,979.1671,598.7448,974.0058,601.06,983.84,600.5237" style="stroke:#181818;stroke-width:1.0;"/><text fill="#000000" font-family="sans-serif" font-size="13" lengthAdjust="spacing" textLength="35.4072" x="865.5" y="532.042">drools</text></g><!--link DroolsWithWhyNot to KnowledgeBase--><g id="link_DroolsWithWhyNot_KnowledgeBase"><path codeLine="117" d="M1377.18,677.6237 C1427.22,678.2837 1474.7505,678.9242 1523.8105,679.5742 " fill="none" id="DroolsWithWhyNot-to-KnowledgeBase" style="stroke:#181818;stroke-width:1.0;"/><polygon fill="#181818" points="1529.81,679.6537,1520.8638,675.5348,1524.8104,679.5874,1520.7578,683.5341,1529.81,679.6537" style="stroke:#181818;stroke-width:1.0;"/><text fill="#000000" font-family="sans-serif" font-size="13" lengthAdjust="spacing" textLength="13.73" x="1447" y="675.042">kb</text></g><!--link KnowledgeBase to RuleWM--><g id="link_KnowledgeBase_RuleWM"><path codeLine="118" d="M1886.06,682.0137 C1926.77,682.0137 1964.1,682.0137 2004.9,682.0137 " fill="none" id="KnowledgeBase-to-RuleWM" style="stroke:#181818;stroke-width:1.0;"/><polygon fill="#181818" points="2010.9,682.0137,2001.9,678.0137,2005.9,682.0137,2001.9,686.0137,2010.9,682.0137" style="stroke:#181818;stroke-width:1.0;"/><text fill="#000000" font-family="sans-serif" font-size="13" lengthAdjust="spacing" textLength="28.1772" x="1934.5" y="678.042">rules</text></g><!--link StateNode to Transition--><g id="link_StateNode_Transition"><path codeLine="119" d="M1831.08,148.2237 C1858.87,153.1237 1888.35,157.4937 1916,160.0137 C1979.44,165.7837 2045.0072,157.9994 2099.0572,148.1494 " fill="none" id="StateNode-to-Transition" style="stroke:#181818;stroke-width:1.0;"/><polygon fill="#181818" points="2104.96,147.0737,2095.3887,144.7521,2100.041,147.9701,2096.823,152.6224,2104.96,147.0737" style="stroke:#181818;stroke-width:1.0;"/><text fill="#000000" font-family="sans-serif" font-size="13" lengthAdjust="spacing" textLength="59.249" x="1919" y="156.042">transitions</text></g><!--link Transition to StateNode--><g id="link_Transition_StateNode"><path codeLine="120" d="M2104.63,126.9537 C2028.69,126.0037 1922.7595,124.6781 1837.3095,123.6181 " fill="none" id="Transition-to-StateNode" style="stroke:#181818;stroke-width:1.0;"/><polygon fill="#181818" points="1831.31,123.5437,1840.2597,127.655,1836.3096,123.6057,1840.3589,119.6556,1831.31,123.5437" style="stroke:#181818;stroke-width:1.0;"/><text fill="#000000" font-family="sans-serif" font-size="13" lengthAdjust="spacing" textLength="63.5972" x="1917" y="121.042">targetState</text></g><!--link WhyNot to DroolsWithWhyNot--><g id="link_WhyNot_DroolsWithWhyNot"><path codeLine="121" d="M597.69,675.0137 C715.78,675.0137 859.71,675.0137 977.8,675.0137 " fill="none" id="WhyNot-to-DroolsWithWhyNot" style="stroke:#181818;stroke-width:1.0;"/><polygon fill="#181818" points="983.8,675.0137,974.8,671.0137,978.8,675.0137,974.8,679.0137,983.8,675.0137" style="stroke:#181818;stroke-width:1.0;"/><text fill="#000000" font-family="sans-serif" font-size="13" lengthAdjust="spacing" textLength="107.6372" x="829.5" y="671.042">droolsWithWhyNot</text></g><!--SRC=[jLTTRzCm57tFhx3WfHNB7x3GfD5j8B6DqKrCF24lkKijZ5sktR89yT-vJft6JfnkGg8FRMfVtwzpVEmeU73C6OQoMJbMIuJAIQEBOYsgxw81zcfXj4EZ5E0hzlh2cxrJ6s2_2qQVIWbhsQaKZJRMoQet3WR-KvBVpk06S2ihuD6QCDIRb_l7DqngMKc1lRMPML2K9DGBWPpH5vevPqkmQwCjd6adtTFRzgzruZXoPUuTu4Bya7fbREnmlFn2MlUsDxaMRdKySdKDs6oq4oUQ_aY3Cmn1WpjwEcBhpiXjXEBing7KpJZWRdmKOWaD2dikb1CKn5uB557YzaIHZHPERetDH1-7kHJh4Eg8jJM6k4bnQpGLM2kmy_CYrsd7_nH_8We5X3l-l4S0FK6WO3fYpmrbHBpaxAE4y9pb5xN80cPObap4Iz4OPSco_RsJRdMtUheoBZBfolyWTAt8wRcetEuvpza6tAMa57Mpt2YmvmPxe21a11E0JIBqhtk2t0vPbHBRUlxd27-G4hxZoqbQT46913cG4omcXA9DxPd4IaQ175oP6cpQkfjk_3WFKIYeTtmk5SmUwCj7sE_J39Sz-BPZybTGoloQeBBt51NtfYjEsiv_d50RDaOycaHFeyniqjwphQn13_i9jaAvTktM6GGjsGFLmjbjDB8LfEsSVHcxttSqXrUcf981WLERA_43CfEowxsqhMVExcd_WOXtjKEXhVIvTyNVxaScS1LrtTlCUWTKvVvvFYwkdqogguoka_X3QCeMceaIdK1IWb3TldqPIf7WV2F5wKYrC2XKogc1DYL9NdnwJzcPfW4SG4ldHHiXazltUr9IRNufg1ju9soiYFQWr98d7mhgvGGfTsPqvht8C0QlGg0czL6zC6Loy1l9QmpCvgdexffpzhXMmcijEO37zKuMZQxKnaQxO9xPWwIhRfPht7pYU4WubBJp1GZLg6AD6xUmVj9qMQa-R-XsCTQteVLpWCishxQX0xo3kiJkFMHtbqEUsrEl9Y5VRzB-puBPxfqj895PMuURoXcyDQVBYrdL3qnZKVPSyCa68WpoVf2wFaNbbRi_myQDQK03ag_GnraQBO5mLtQ2dQzxCPG1misVvyFoEsCBFpTUYJDbOTSrplODV96Qb4b5xaIfI-6g5TNZuD5rzaTqLsdWCMhiuJCZ8oVrWEY7RaRbVzX_pyUdfSaUf8goBo2bedURyZXpkUJZ5v9YR5KcQzCx2v-wSXPJAuRUw6x0XzUTWulx0vX7rvwfl8Sd1W_05gCPRvvg5wVZeKY7l57O7Nod1KMVZv-CJb0U7zn5D36i8ZeWYoYPoTmZ2lu5]--></g></svg>