<svg xmlns="http://www.w3.org/2000/svg" xmlns:xlink="http://www.w3.org/1999/xlink" contentStyleType="text/css" height="486px" preserveAspectRatio="none" style="width:1959px;height:486px;background:#FFFFFF;" version="1.1" viewBox="0 0 1959 486" width="1959px" zoomAndPan="magnify"><defs/><g><!--cluster Controller--><g id="cluster_Controller"><path d="M8.5,178 L76.3896,178 A3.75,3.75 0 0 1 78.8896,180.5 L85.8896,202.6211 L450.5,202.6211 A2.5,2.5 0 0 1 453,205.1211 L453,370.5 A2.5,2.5 0 0 1 450.5,373 L8.5,373 A2.5,2.5 0 0 1 6,370.5 L6,180.5 A2.5,2.5 0 0 1 8.5,178 " fill="#87CEFA" style="stroke:#000000;stroke-width:1.5;"/><line style="stroke:#000000;stroke-width:1.5;" x1="6" x2="85.8896" y1="202.6211" y2="202.6211"/><text fill="#000000" font-family="sans-serif" font-size="14" font-weight="bold" lengthAdjust="spacing" textLength="66.8896" x="10" y="195.1074">Controller</text></g><!--cluster Service--><g id="cluster_Service"><path d="M603.5,178 L654.3203,178 A3.75,3.75 0 0 1 656.8203,180.5 L663.8203,202.6211 L1090.5,202.6211 A2.5,2.5 0 0 1 1093,205.1211 L1093,370.5 A2.5,2.5 0 0 1 1090.5,373 L603.5,373 A2.5,2.5 0 0 1 601,370.5 L601,180.5 A2.5,2.5 0 0 1 603.5,178 " fill="#90EE90" style="stroke:#000000;stroke-width:1.5;"/><line style="stroke:#000000;stroke-width:1.5;" x1="601" x2="663.8203" y1="202.6211" y2="202.6211"/><text fill="#000000" font-family="sans-serif" font-size="14" font-weight="bold" lengthAdjust="spacing" textLength="49.8203" x="605" y="195.1074">Service</text></g><!--cluster Facts--><g id="cluster_Facts"><path d="M1178.5,71 L1216.0723,71 A3.75,3.75 0 0 1 1218.5723,73.5 L1225.5723,95.6211 L1949.5,95.6211 A2.5,2.5 0 0 1 1952,98.1211 L1952,476.5 A2.5,2.5 0 0 1 1949.5,479 L1178.5,479 A2.5,2.5 0 0 1 1176,476.5 L1176,73.5 A2.5,2.5 0 0 1 1178.5,71 " fill="#FAFAD2" style="stroke:#000000;stroke-width:1.5;"/><line style="stroke:#000000;stroke-width:1.5;" x1="1176" x2="1225.5723" y1="95.6211" y2="95.6211"/><text fill="#000000" font-family="sans-serif" font-size="14" font-weight="bold" lengthAdjust="spacing" textLength="36.5723" x="1180" y="88.1074">Facts</text></g><!--class CarSelectionController--><g id="elem_CarSelectionController"><rect codeLine="4" fill="#F1F1F1" height="141.1055" id="CarSelectionController" rx="2.5" ry="2.5" style="stroke:#181818;stroke-width:0.5;" width="415.0879" x="22" y="215.5"/><ellipse cx="154.8735" cy="231.5" fill="#ADD1B2" rx="11" ry="11" style="stroke:#181818;stroke-width:1.0;"/><path d="M157.6392,227.375 Q157.7954,227.1563 157.9829,227.0469 Q158.1704,226.9375 158.3892,226.9375 Q158.7642,226.9375 158.9985,227.2031 Q159.2329,227.4531 159.2329,228.0625 L159.2329,229.5156 Q159.2329,230.125 158.9985,230.3906 Q158.7642,230.6563 158.3892,230.6563 Q158.0454,230.6563 157.8423,230.4531 Q157.6392,230.2656 157.5298,229.75 Q157.4829,229.3906 157.2954,229.2031 Q156.9673,228.8281 156.3579,228.6094 Q155.7485,228.3906 155.1235,228.3906 Q154.3579,228.3906 153.7173,228.7188 Q153.0923,229.0469 152.5923,229.7969 Q152.1079,230.5469 152.1079,231.5781 L152.1079,232.6719 Q152.1079,233.9063 152.9985,234.7344 Q153.8892,235.5469 155.4829,235.5469 Q156.4204,235.5469 157.0767,235.2969 Q157.4673,235.1406 157.8892,234.7031 Q158.1548,234.4375 158.2954,234.3594 Q158.4517,234.2813 158.6548,234.2813 Q158.9829,234.2813 159.2329,234.5469 Q159.4985,234.7969 159.4985,235.1406 Q159.4985,235.4844 159.1548,235.8906 Q158.6548,236.4688 157.8579,236.7969 Q156.7798,237.25 155.4829,237.25 Q153.9673,237.25 152.7642,236.625 Q151.7798,236.125 151.0923,235.0625 Q150.4048,233.9844 150.4048,232.7031 L150.4048,231.5469 Q150.4048,230.2188 151.0142,229.0781 Q151.6392,227.9219 152.7329,227.3125 Q153.8267,226.6875 155.061,226.6875 Q155.7954,226.6875 156.436,226.8594 Q157.0923,227.0156 157.6392,227.375 Z " fill="#000000"/><text fill="#000000" font-family="sans-serif" font-size="14" lengthAdjust="spacing" textLength="140.8408" x="175.3735" y="237.2969">CarSelectionController</text><line style="stroke:#181818;stroke-width:0.5;" x1="23" x2="436.0879" y1="247.5" y2="247.5"/><rect fill="none" height="6" style="stroke:#C82930;stroke-width:1.0;" width="6" x="30" y="259.3105"/><text fill="#000000" font-family="sans-serif" font-size="14" lengthAdjust="spacing" textLength="258.3369" x="42" y="266.6074">carSelectionService: CarSelectionService</text><rect fill="none" height="6" style="stroke:#C82930;stroke-width:1.0;" width="6" x="30" y="277.9316"/><text fill="#000000" font-family="sans-serif" font-size="14" lengthAdjust="spacing" textLength="119.8203" x="42" y="285.2285">carros: List&lt;Carro&gt;</text><line style="stroke:#181818;stroke-width:1.0;" x1="23" x2="436.0879" y1="292.7422" y2="292.7422"/><ellipse cx="33" cy="307.5527" fill="#84BE84" rx="3" ry="3" style="stroke:#038048;stroke-width:1.0;"/><text fill="#000000" font-family="sans-serif" font-size="14" lengthAdjust="spacing" textLength="318.2539" x="42" y="311.8496">buscarListaCarros(): ResponseEntity&lt;List&lt;Carro&gt;&gt;</text><ellipse cx="33" cy="326.1738" fill="#84BE84" rx="3" ry="3" style="stroke:#038048;stroke-width:1.0;"/><text fill="#000000" font-family="sans-serif" font-size="14" lengthAdjust="spacing" textLength="277.8125" x="42" y="330.4707">iniciarSelecao(): ResponseEntity&lt;Resposta&gt;</text><ellipse cx="33" cy="344.7949" fill="#84BE84" rx="3" ry="3" style="stroke:#038048;stroke-width:1.0;"/><text fill="#000000" font-family="sans-serif" font-size="14" lengthAdjust="spacing" textLength="389.0879" x="42" y="349.0918">processarResposta(value: String): ResponseEntity&lt;Resposta&gt;</text></g><!--class CarSelectionService--><g id="elem_CarSelectionService"><rect codeLine="15" fill="#F1F1F1" height="141.1055" id="CarSelectionService" rx="2.5" ry="2.5" style="stroke:#181818;stroke-width:0.5;" width="460.1846" x="617" y="215.5"/><ellipse cx="779.4253" cy="231.5" fill="#ADD1B2" rx="11" ry="11" style="stroke:#181818;stroke-width:1.0;"/><path d="M782.1909,227.375 Q782.3472,227.1563 782.5347,227.0469 Q782.7222,226.9375 782.9409,226.9375 Q783.3159,226.9375 783.5503,227.2031 Q783.7847,227.4531 783.7847,228.0625 L783.7847,229.5156 Q783.7847,230.125 783.5503,230.3906 Q783.3159,230.6563 782.9409,230.6563 Q782.5972,230.6563 782.394,230.4531 Q782.1909,230.2656 782.0815,229.75 Q782.0347,229.3906 781.8472,229.2031 Q781.519,228.8281 780.9097,228.6094 Q780.3003,228.3906 779.6753,228.3906 Q778.9097,228.3906 778.269,228.7188 Q777.644,229.0469 777.144,229.7969 Q776.6597,230.5469 776.6597,231.5781 L776.6597,232.6719 Q776.6597,233.9063 777.5503,234.7344 Q778.4409,235.5469 780.0347,235.5469 Q780.9722,235.5469 781.6284,235.2969 Q782.019,235.1406 782.4409,234.7031 Q782.7065,234.4375 782.8472,234.3594 Q783.0034,234.2813 783.2065,234.2813 Q783.5347,234.2813 783.7847,234.5469 Q784.0503,234.7969 784.0503,235.1406 Q784.0503,235.4844 783.7065,235.8906 Q783.2065,236.4688 782.4097,236.7969 Q781.3315,237.25 780.0347,237.25 Q778.519,237.25 777.3159,236.625 Q776.3315,236.125 775.644,235.0625 Q774.9565,233.9844 774.9565,232.7031 L774.9565,231.5469 Q774.9565,230.2188 775.5659,229.0781 Q776.1909,227.9219 777.2847,227.3125 Q778.3784,226.6875 779.6128,226.6875 Q780.3472,226.6875 780.9878,226.8594 Q781.644,227.0156 782.1909,227.375 Z " fill="#000000"/><text fill="#000000" font-family="sans-serif" font-size="14" lengthAdjust="spacing" textLength="126.834" x="799.9253" y="237.2969">CarSelectionService</text><line style="stroke:#181818;stroke-width:0.5;" x1="618" x2="1076.1846" y1="247.5" y2="247.5"/><rect fill="none" height="6" style="stroke:#C82930;stroke-width:1.0;" width="6" x="625" y="259.3105"/><text fill="#000000" font-family="sans-serif" font-size="14" lengthAdjust="spacing" textLength="134.627" x="637" y="266.6074">kSession: KieSession</text><rect fill="none" height="6" style="stroke:#C82930;stroke-width:1.0;" width="6" x="625" y="277.9316"/><text fill="#000000" font-family="sans-serif" font-size="14" lengthAdjust="spacing" textLength="120.6201" x="637" y="285.2285">resposta: Resposta</text><rect fill="none" height="6" style="stroke:#C82930;stroke-width:1.0;" width="6" x="625" y="296.5527"/><text fill="#000000" font-family="sans-serif" font-size="14" lengthAdjust="spacing" textLength="177.4336" x="637" y="303.8496">respostaHandle: FactHandle</text><line style="stroke:#181818;stroke-width:1.0;" x1="618" x2="1076.1846" y1="311.3633" y2="311.3633"/><ellipse cx="628" cy="326.1738" fill="#84BE84" rx="3" ry="3" style="stroke:#038048;stroke-width:1.0;"/><text fill="#000000" font-family="sans-serif" font-size="14" lengthAdjust="spacing" textLength="431.8604" x="637" y="330.4707">getCarroSelecionado(carros: List&lt;Carro&gt;, resposta: Resposta): Carro</text><ellipse cx="628" cy="344.7949" fill="#84BE84" rx="3" ry="3" style="stroke:#038048;stroke-width:1.0;"/><text fill="#000000" font-family="sans-serif" font-size="14" lengthAdjust="spacing" textLength="434.1846" x="637" y="349.0918">processarResposta(carros: List&lt;Carro&gt;, inputTexto: String): Resposta</text></g><!--class Carro--><g id="elem_Carro"><rect codeLine="26" fill="#F1F1F1" height="141.1055" id="Carro" rx="2.5" ry="2.5" style="stroke:#181818;stroke-width:0.5;" width="337.3018" x="1599" y="321.5"/><ellipse cx="1745.8975" cy="337.5" fill="#ADD1B2" rx="11" ry="11" style="stroke:#181818;stroke-width:1.0;"/><path d="M1748.6631,333.375 Q1748.8193,333.1563 1749.0068,333.0469 Q1749.1943,332.9375 1749.4131,332.9375 Q1749.7881,332.9375 1750.0225,333.2031 Q1750.2568,333.4531 1750.2568,334.0625 L1750.2568,335.5156 Q1750.2568,336.125 1750.0225,336.3906 Q1749.7881,336.6563 1749.4131,336.6563 Q1749.0693,336.6563 1748.8662,336.4531 Q1748.6631,336.2656 1748.5537,335.75 Q1748.5068,335.3906 1748.3193,335.2031 Q1747.9912,334.8281 1747.3818,334.6094 Q1746.7725,334.3906 1746.1475,334.3906 Q1745.3818,334.3906 1744.7412,334.7188 Q1744.1162,335.0469 1743.6162,335.7969 Q1743.1318,336.5469 1743.1318,337.5781 L1743.1318,338.6719 Q1743.1318,339.9063 1744.0225,340.7344 Q1744.9131,341.5469 1746.5068,341.5469 Q1747.4443,341.5469 1748.1006,341.2969 Q1748.4912,341.1406 1748.9131,340.7031 Q1749.1787,340.4375 1749.3193,340.3594 Q1749.4756,340.2813 1749.6787,340.2813 Q1750.0068,340.2813 1750.2568,340.5469 Q1750.5225,340.7969 1750.5225,341.1406 Q1750.5225,341.4844 1750.1787,341.8906 Q1749.6787,342.4688 1748.8818,342.7969 Q1747.8037,343.25 1746.5068,343.25 Q1744.9912,343.25 1743.7881,342.625 Q1742.8037,342.125 1742.1162,341.0625 Q1741.4287,339.9844 1741.4287,338.7031 L1741.4287,337.5469 Q1741.4287,336.2188 1742.0381,335.0781 Q1742.6631,333.9219 1743.7568,333.3125 Q1744.8506,332.6875 1746.085,332.6875 Q1746.8193,332.6875 1747.46,332.8594 Q1748.1162,333.0156 1748.6631,333.375 Z " fill="#000000"/><text fill="#000000" font-family="sans-serif" font-size="14" lengthAdjust="spacing" textLength="35.0068" x="1766.3975" y="343.2969">Carro</text><line style="stroke:#181818;stroke-width:0.5;" x1="1600" x2="1935.3018" y1="353.5" y2="353.5"/><rect fill="none" height="6" style="stroke:#C82930;stroke-width:1.0;" width="6" x="1607" y="365.3105"/><text fill="#000000" font-family="sans-serif" font-size="14" lengthAdjust="spacing" textLength="210.1367" x="1619" y="372.6074">componentes: List&lt;Componente&gt;</text><rect fill="none" height="6" style="stroke:#C82930;stroke-width:1.0;" width="6" x="1607" y="383.9316"/><text fill="#000000" font-family="sans-serif" font-size="14" lengthAdjust="spacing" textLength="85.5723" x="1619" y="391.2285">marca: Marca</text><rect fill="none" height="6" style="stroke:#C82930;stroke-width:1.0;" width="6" x="1607" y="402.5527"/><text fill="#000000" font-family="sans-serif" font-size="14" lengthAdjust="spacing" textLength="134.6201" x="1619" y="409.8496">modelo: ModeloCarro</text><rect fill="none" height="6" style="stroke:#C82930;stroke-width:1.0;" width="6" x="1607" y="421.1738"/><text fill="#000000" font-family="sans-serif" font-size="14" lengthAdjust="spacing" textLength="79.3516" x="1619" y="428.4707">motor: Motor</text><line style="stroke:#181818;stroke-width:1.0;" x1="1600" x2="1935.3018" y1="435.9844" y2="435.9844"/><ellipse cx="1610" cy="450.7949" fill="#84BE84" rx="3" ry="3" style="stroke:#038048;stroke-width:1.0;"/><text fill="#000000" font-family="sans-serif" font-size="14" lengthAdjust="spacing" textLength="311.3018" x="1619" y="455.0918">adicionarComponente(componente: Componente)</text></g><!--class Resposta--><g id="elem_Resposta"><rect codeLine="35" fill="#F1F1F1" height="159.7266" id="Resposta" rx="2.5" ry="2.5" style="stroke:#181818;stroke-width:0.5;" width="243.9092" x="1192" y="206"/><ellipse cx="1280.1323" cy="222" fill="#ADD1B2" rx="11" ry="11" style="stroke:#181818;stroke-width:1.0;"/><path d="M1282.8979,217.875 Q1283.0542,217.6563 1283.2417,217.5469 Q1283.4292,217.4375 1283.6479,217.4375 Q1284.0229,217.4375 1284.2573,217.7031 Q1284.4917,217.9531 1284.4917,218.5625 L1284.4917,220.0156 Q1284.4917,220.625 1284.2573,220.8906 Q1284.0229,221.1563 1283.6479,221.1563 Q1283.3042,221.1563 1283.1011,220.9531 Q1282.8979,220.7656 1282.7886,220.25 Q1282.7417,219.8906 1282.5542,219.7031 Q1282.2261,219.3281 1281.6167,219.1094 Q1281.0073,218.8906 1280.3823,218.8906 Q1279.6167,218.8906 1278.9761,219.2188 Q1278.3511,219.5469 1277.8511,220.2969 Q1277.3667,221.0469 1277.3667,222.0781 L1277.3667,223.1719 Q1277.3667,224.4063 1278.2573,225.2344 Q1279.1479,226.0469 1280.7417,226.0469 Q1281.6792,226.0469 1282.3354,225.7969 Q1282.7261,225.6406 1283.1479,225.2031 Q1283.4136,224.9375 1283.5542,224.8594 Q1283.7104,224.7813 1283.9136,224.7813 Q1284.2417,224.7813 1284.4917,225.0469 Q1284.7573,225.2969 1284.7573,225.6406 Q1284.7573,225.9844 1284.4136,226.3906 Q1283.9136,226.9688 1283.1167,227.2969 Q1282.0386,227.75 1280.7417,227.75 Q1279.2261,227.75 1278.0229,227.125 Q1277.0386,226.625 1276.3511,225.5625 Q1275.6636,224.4844 1275.6636,223.2031 L1275.6636,222.0469 Q1275.6636,220.7188 1276.2729,219.5781 Q1276.8979,218.4219 1277.9917,217.8125 Q1279.0854,217.1875 1280.3198,217.1875 Q1281.0542,217.1875 1281.6948,217.3594 Q1282.3511,217.5156 1282.8979,217.875 Z " fill="#000000"/><text fill="#000000" font-family="sans-serif" font-size="14" lengthAdjust="spacing" textLength="59.1445" x="1300.6323" y="227.7969">Resposta</text><line style="stroke:#181818;stroke-width:0.5;" x1="1193" x2="1434.9092" y1="238" y2="238"/><rect fill="none" height="6" style="stroke:#C82930;stroke-width:1.0;" width="6" x="1200" y="249.8105"/><text fill="#000000" font-family="sans-serif" font-size="14" lengthAdjust="spacing" textLength="151.7441" x="1212" y="257.1074">carroSelecionado: Carro</text><rect fill="none" height="6" style="stroke:#C82930;stroke-width:1.0;" width="6" x="1200" y="268.4316"/><text fill="#000000" font-family="sans-serif" font-size="14" lengthAdjust="spacing" textLength="115.1787" x="1212" y="275.7285">diagnostico: String</text><rect fill="none" height="6" style="stroke:#C82930;stroke-width:1.0;" width="6" x="1200" y="287.0527"/><text fill="#000000" font-family="sans-serif" font-size="14" lengthAdjust="spacing" textLength="86.3857" x="1212" y="294.3496">estado: String</text><rect fill="none" height="6" style="stroke:#C82930;stroke-width:1.0;" width="6" x="1200" y="305.6738"/><text fill="#000000" font-family="sans-serif" font-size="14" lengthAdjust="spacing" textLength="169.6611" x="1212" y="312.9707">evidencias: List&lt;Evidence&gt;</text><line style="stroke:#181818;stroke-width:1.0;" x1="1193" x2="1434.9092" y1="320.4844" y2="320.4844"/><ellipse cx="1203" cy="335.2949" fill="#84BE84" rx="3" ry="3" style="stroke:#038048;stroke-width:1.0;"/><text fill="#000000" font-family="sans-serif" font-size="14" lengthAdjust="spacing" textLength="217.9092" x="1212" y="339.5918">addEvidencia(evidencia: Evidence)</text><ellipse cx="1203" cy="353.916" fill="#84BE84" rx="3" ry="3" style="stroke:#038048;stroke-width:1.0;"/><text fill="#000000" font-family="sans-serif" font-size="14" lengthAdjust="spacing" textLength="211.6611" x="1212" y="358.2129">addRegraDisparada(regra: String)</text></g><!--class Componente--><g id="elem_Componente"><rect codeLine="45" fill="#F1F1F1" height="159.7266" id="Componente" rx="2.5" ry="2.5" style="stroke:#181818;stroke-width:0.5;" width="185.5303" x="1674.5" y="108"/><ellipse cx="1722.9326" cy="124" fill="#ADD1B2" rx="11" ry="11" style="stroke:#181818;stroke-width:1.0;"/><path d="M1725.6982,119.875 Q1725.8545,119.6563 1726.042,119.5469 Q1726.2295,119.4375 1726.4482,119.4375 Q1726.8232,119.4375 1727.0576,119.7031 Q1727.292,119.9531 1727.292,120.5625 L1727.292,122.0156 Q1727.292,122.625 1727.0576,122.8906 Q1726.8232,123.1563 1726.4482,123.1563 Q1726.1045,123.1563 1725.9014,122.9531 Q1725.6982,122.7656 1725.5889,122.25 Q1725.542,121.8906 1725.3545,121.7031 Q1725.0264,121.3281 1724.417,121.1094 Q1723.8076,120.8906 1723.1826,120.8906 Q1722.417,120.8906 1721.7764,121.2188 Q1721.1514,121.5469 1720.6514,122.2969 Q1720.167,123.0469 1720.167,124.0781 L1720.167,125.1719 Q1720.167,126.4063 1721.0576,127.2344 Q1721.9482,128.0469 1723.542,128.0469 Q1724.4795,128.0469 1725.1357,127.7969 Q1725.5264,127.6406 1725.9482,127.2031 Q1726.2139,126.9375 1726.3545,126.8594 Q1726.5107,126.7813 1726.7139,126.7813 Q1727.042,126.7813 1727.292,127.0469 Q1727.5576,127.2969 1727.5576,127.6406 Q1727.5576,127.9844 1727.2139,128.3906 Q1726.7139,128.9688 1725.917,129.2969 Q1724.8389,129.75 1723.542,129.75 Q1722.0264,129.75 1720.8232,129.125 Q1719.8389,128.625 1719.1514,127.5625 Q1718.4639,126.4844 1718.4639,125.2031 L1718.4639,124.0469 Q1718.4639,122.7188 1719.0732,121.5781 Q1719.6982,120.4219 1720.792,119.8125 Q1721.8857,119.1875 1723.1201,119.1875 Q1723.8545,119.1875 1724.4951,119.3594 Q1725.1514,119.5156 1725.6982,119.875 Z " fill="#000000"/><text fill="#000000" font-family="sans-serif" font-size="14" lengthAdjust="spacing" textLength="80.165" x="1743.4326" y="129.7969">Componente</text><line style="stroke:#181818;stroke-width:0.5;" x1="1675.5" x2="1859.0303" y1="140" y2="140"/><rect fill="none" height="6" style="stroke:#C82930;stroke-width:1.0;" width="6" x="1682.5" y="151.8105"/><text fill="#000000" font-family="sans-serif" font-size="14" lengthAdjust="spacing" textLength="79.3721" x="1694.5" y="159.1074">nome: String</text><rect fill="none" height="6" style="stroke:#C82930;stroke-width:1.0;" width="6" x="1682.5" y="170.4316"/><text fill="#000000" font-family="sans-serif" font-size="14" lengthAdjust="spacing" textLength="94.1787" x="1694.5" y="177.7285">unidade: String</text><rect fill="none" height="6" style="stroke:#C82930;stroke-width:1.0;" width="6" x="1682.5" y="189.0527"/><text fill="#000000" font-family="sans-serif" font-size="14" lengthAdjust="spacing" textLength="129.1719" x="1694.5" y="196.3496">valorMaximo: double</text><rect fill="none" height="6" style="stroke:#C82930;stroke-width:1.0;" width="6" x="1682.5" y="207.6738"/><text fill="#000000" font-family="sans-serif" font-size="14" lengthAdjust="spacing" textLength="159.5303" x="1694.5" y="214.9707">valorMaximoIdeal: double</text><rect fill="none" height="6" style="stroke:#C82930;stroke-width:1.0;" width="6" x="1682.5" y="226.2949"/><text fill="#000000" font-family="sans-serif" font-size="14" lengthAdjust="spacing" textLength="125.2822" x="1694.5" y="233.5918">valorMinimo: double</text><rect fill="none" height="6" style="stroke:#C82930;stroke-width:1.0;" width="6" x="1682.5" y="244.916"/><text fill="#000000" font-family="sans-serif" font-size="14" lengthAdjust="spacing" textLength="155.6406" x="1694.5" y="252.2129">valorMinimoIdeal: double</text><line style="stroke:#181818;stroke-width:0.5;" x1="1675.5" x2="1859.0303" y1="259.7266" y2="259.7266"/></g><!--class Evidence--><g id="elem_Evidence"><rect fill="#F1F1F1" height="48" id="Evidence" rx="2.5" ry="2.5" style="stroke:#181818;stroke-width:0.5;" width="89.5928" x="1269" y="7"/><ellipse cx="1284" cy="23" fill="#ADD1B2" rx="11" ry="11" style="stroke:#181818;stroke-width:1.0;"/><path d="M1286.7656,18.875 Q1286.9219,18.6563 1287.1094,18.5469 Q1287.2969,18.4375 1287.5156,18.4375 Q1287.8906,18.4375 1288.125,18.7031 Q1288.3594,18.9531 1288.3594,19.5625 L1288.3594,21.0156 Q1288.3594,21.625 1288.125,21.8906 Q1287.8906,22.1563 1287.5156,22.1563 Q1287.1719,22.1563 1286.9688,21.9531 Q1286.7656,21.7656 1286.6563,21.25 Q1286.6094,20.8906 1286.4219,20.7031 Q1286.0938,20.3281 1285.4844,20.1094 Q1284.875,19.8906 1284.25,19.8906 Q1283.4844,19.8906 1282.8438,20.2188 Q1282.2188,20.5469 1281.7188,21.2969 Q1281.2344,22.0469 1281.2344,23.0781 L1281.2344,24.1719 Q1281.2344,25.4063 1282.125,26.2344 Q1283.0156,27.0469 1284.6094,27.0469 Q1285.5469,27.0469 1286.2031,26.7969 Q1286.5938,26.6406 1287.0156,26.2031 Q1287.2813,25.9375 1287.4219,25.8594 Q1287.5781,25.7813 1287.7813,25.7813 Q1288.1094,25.7813 1288.3594,26.0469 Q1288.625,26.2969 1288.625,26.6406 Q1288.625,26.9844 1288.2813,27.3906 Q1287.7813,27.9688 1286.9844,28.2969 Q1285.9063,28.75 1284.6094,28.75 Q1283.0938,28.75 1281.8906,28.125 Q1280.9063,27.625 1280.2188,26.5625 Q1279.5313,25.4844 1279.5313,24.2031 L1279.5313,23.0469 Q1279.5313,21.7188 1280.1406,20.5781 Q1280.7656,19.4219 1281.8594,18.8125 Q1282.9531,18.1875 1284.1875,18.1875 Q1284.9219,18.1875 1285.5625,18.3594 Q1286.2188,18.5156 1286.7656,18.875 Z " fill="#000000"/><text fill="#000000" font-family="sans-serif" font-size="14" lengthAdjust="spacing" textLength="57.5928" x="1298" y="28.7969">Evidence</text><line style="stroke:#181818;stroke-width:0.5;" x1="1270" x2="1357.5928" y1="39" y2="39"/><line style="stroke:#181818;stroke-width:0.5;" x1="1270" x2="1357.5928" y1="47" y2="47"/></g><!--link CarSelectionController to CarSelectionService--><g id="link_CarSelectionController_CarSelectionService"><path codeLine="55" d="M437.16,286 C494.88,286 551.92,286 610.85,286 " fill="none" id="CarSelectionController-to-CarSelectionService" style="stroke:#181818;stroke-width:1.0;"/><polygon fill="#181818" points="616.85,286,607.85,282,611.85,286,607.85,290,616.85,286" style="stroke:#181818;stroke-width:1.0;"/><text fill="#000000" font-family="sans-serif" font-size="13" lengthAdjust="spacing" textLength="114.8862" x="470" y="282.0283">carSelectionService</text></g><!--link CarSelectionService to Resposta--><g id="link_CarSelectionService_Resposta"><path codeLine="56" d="M1077.09,286 C1116.75,286 1150.55,286 1185.85,286 " fill="none" id="CarSelectionService-to-Resposta" style="stroke:#181818;stroke-width:1.0;"/><polygon fill="#181818" points="1191.85,286,1182.85,282,1186.85,286,1182.85,290,1191.85,286" style="stroke:#181818;stroke-width:1.0;"/><text fill="#000000" font-family="sans-serif" font-size="13" lengthAdjust="spacing" textLength="49.8608" x="1110" y="282.0283">resposta</text></g><!--link Carro to Componente--><g id="link_Carro_Componente"><path codeLine="57" d="M1767.5,321.22 C1767.5,304.08 1767.5,291.63 1767.5,274.09 " fill="none" id="Carro-to-Componente" style="stroke:#181818;stroke-width:1.0;"/><polygon fill="#181818" points="1767.5,268.09,1763.5,277.09,1767.5,273.09,1771.5,277.09,1767.5,268.09" style="stroke:#181818;stroke-width:1.0;"/><text fill="#000000" font-family="sans-serif" font-size="13" lengthAdjust="spacing" textLength="78.0508" x="1716" y="300.2783">componentes</text></g><!--link Resposta to Carro--><g id="link_Resposta_Carro"><path codeLine="58" d="M1436.29,314.48 C1486.18,326.19 1538.9588,338.5788 1592.8488,351.2288 " fill="none" id="Resposta-to-Carro" style="stroke:#181818;stroke-width:1.0;"/><polygon fill="#181818" points="1598.69,352.6,1590.8423,346.6491,1593.8223,351.4574,1589.0141,354.4374,1598.69,352.6" style="stroke:#181818;stroke-width:1.0;"/><text fill="#000000" font-family="sans-serif" font-size="13" lengthAdjust="spacing" textLength="101.1753" x="1467" y="320.0283">carroSelecionado</text></g><!--link Resposta to Evidence--><g id="link_Resposta_Evidence"><path codeLine="59" d="M1314,205.67 C1314,153.55 1314,95.19 1314,61 " fill="none" id="Resposta-to-Evidence" style="stroke:#181818;stroke-width:1.0;"/><polygon fill="#181818" points="1314,55,1310,64,1314,60,1318,64,1314,55" style="stroke:#181818;stroke-width:1.0;"/><text fill="#000000" font-family="sans-serif" font-size="13" lengthAdjust="spacing" textLength="61.4263" x="1271" y="136.0283">evidencias</text></g><!--SRC=[XLJ1Rjim3BtxAuJkuc3D3nX53ikoRbXpINRPaRKuJuWY6PISjHZwxwCSMvOJfVF5alX8yJsIqlZB2sy5gUQt5r8HrbvPKnGjr0TeKDojhV5ajKQw4n-U0cn_UFsaEnH_2y5VhS4viGRQepuxJnu397nBKIUGFT99rLZD_8R3kGjPLuadvVp3EcnMatKPbn_5S-SO6s3GmrovgCGENMkDmutnohy-945MYQiogbP35c0pVlsM0wTEBTaQdGCQZUK9M99Ax3qfq_mlo5lnbYWyy1xbVIH4SrFS0JnJzh3dNDXMYUyAXtLYfk7k8IbUPOnVmKZD1Bv0xS_hlD8D-bx3FY6-1wGjCsMwpzowwCjDzbqTix6KQJl_0r-ylLHu93DND91mKK-h9PgTbJzHQ_ldKbcoyowrHwuR6eynYNYID9yu0jNCRHj-wR6Lg3dBRV-VqmrMRoaO-PUN5wJgLQNfrd9AYGMCwyN0Es4pAd8vThDgNHPXoLCFZM4_LKTv4ojoG9ard1JhohCp2hKv7-3g5ZMv6LtAw5o9qMqnn-wm8VYiN0i44aeAsrZzQ-wJC3FsnXunatjdb0IPi_0SMzh2YpeoPscxvtGGKkitYQ1lGlXLUIT0RxqEq3VnZPTqkLnbtu4gzwuMEMI843kaYlDPd6SWX9yahD8vAABNa0J3gwk-Ib2hM5F6JMrI_0C0]--></g></svg>